<?xml version="1.0" encoding="UTF-8"?>
<svg version="1.1" xmlns="http://www.w3.org/2000/svg" width="611" height="512">
<path d="M0 0 C6.7769038 -0.05106081 13.55375727 -0.0858839 20.33081055 -0.10986328 C22.6322617 -0.11986889 24.93370031 -0.13347758 27.23510742 -0.15087891 C30.55911369 -0.17536779 33.88295066 -0.18653784 37.20703125 -0.1953125 C38.2220723 -0.20563507 39.23711334 -0.21595764 40.28291321 -0.22659302 C50.36611977 -0.228147 59.94893164 0.39545929 68 7 C72.13851736 11.35633406 73.83745092 14.95188165 74.3125 20.9375 C74.15333548 26.22972014 72.17023644 29.63472416 68.75 33.625 C64.15021267 37.5975436 60.28107066 40.29039197 54 40 C54.31710937 40.50144531 54.63421875 41.00289063 54.9609375 41.51953125 C57.6157453 45.82442677 60.10936456 50.16349101 62.37890625 54.68359375 C62.80059082 55.51592529 63.22227539 56.34825684 63.65673828 57.20581055 C64.49513941 58.87126578 65.32088395 60.54316766 66.13232422 62.22192383 C68.85120528 67.59756837 71.84893747 71.72827858 77 75 C80.26139352 75.95167379 80.26139352 75.95167379 83 76 C83 77.65 83 79.3 83 81 C73.76 81 64.52 81 55 81 C54.05898438 78.98777344 53.11796875 76.97554688 52.1484375 74.90234375 C51.2176307 72.9317662 50.28307088 70.96301057 49.34814453 68.99438477 C48.70618842 67.63751567 48.06807774 66.27881967 47.43408203 64.91821289 C42.13714914 52.05843494 42.13714914 52.05843494 31.81787109 43.83178711 C30.88797363 43.55729736 29.95807617 43.28280762 29 43 C29.13912471 47.39607256 29.28746803 51.79178723 29.4375 56.1875 C29.47681641 57.43337891 29.51613281 58.67925781 29.55664062 59.96289062 C29.59853516 61.16494141 29.64042969 62.36699219 29.68359375 63.60546875 C29.72025146 64.71043701 29.75690918 65.81540527 29.79467773 66.95385742 C29.98152656 69.72592972 30.38162366 72.29542873 31 75 C33.97 75.66 36.94 76.32 40 77 C40 78.32 40 79.64 40 81 C26.8 81 13.6 81 0 81 C0 79.68 0 78.36 0 77 C0.63808594 76.80664062 1.27617187 76.61328125 1.93359375 76.4140625 C3.17302734 76.02347656 3.17302734 76.02347656 4.4375 75.625 C5.26121094 75.36976563 6.08492187 75.11453125 6.93359375 74.8515625 C9.17798016 74.19117773 9.17798016 74.19117773 10 72 C10.09653272 70.0143283 10.12796408 68.02536977 10.12939453 66.03735352 C10.13254669 64.78588028 10.13569885 63.53440704 10.13894653 62.24501038 C10.1371565 60.87297531 10.13510548 59.50094057 10.1328125 58.12890625 C10.13348593 56.72647586 10.13445629 55.32404559 10.13571167 53.9216156 C10.13718727 50.98020315 10.13503882 48.03882104 10.13037109 45.09741211 C10.12467913 41.32668671 10.12795029 37.55603257 10.13394356 33.78530979 C10.13755735 30.88827477 10.13640672 27.99125664 10.13381577 25.09422112 C10.13314849 23.70394825 10.13396797 22.31367386 10.13629532 20.92340279 C10.1388346 18.97961583 10.13427815 17.0358235 10.12939453 15.09204102 C10.12859894 13.98554703 10.12780334 12.87905304 10.12698364 11.73902893 C10.12010647 8.90706287 10.12010647 8.90706287 9 6 C6.03 5.67 3.06 5.34 0 5 C0 3.35 0 1.7 0 0 Z " fill="#67757F" transform="translate(243,429)"/>
<path d="M0 0 C7.3425 -0.061875 14.685 -0.12375 22.25 -0.1875 C25.68841309 -0.22846802 25.68841309 -0.22846802 29.19628906 -0.27026367 C58.34281959 -0.47287191 58.34281959 -0.47287191 67.78515625 8.7421875 C72.57649047 14.20181656 73.35130118 17.57997655 73.28125 24.8828125 C72.77025201 30.5463735 70.66868068 34.28496708 66.75 38.3125 C58.00573773 43.6782973 49.16269131 44.15090785 39.125 44.0625 C37.66320313 44.05573242 37.66320313 44.05573242 36.171875 44.04882812 C33.78118566 44.03710906 31.3906256 44.02070219 29 44 C29.05178948 48.5842623 29.14685171 53.16662828 29.25 57.75 C29.26417969 59.05195313 29.27835938 60.35390625 29.29296875 61.6953125 C29.32519531 62.94570313 29.35742188 64.19609375 29.390625 65.484375 C29.41157227 66.63647461 29.43251953 67.78857422 29.45410156 68.97558594 C30.10810529 72.59893037 31.11377321 73.78216257 34 76 C36.64184541 76.79681318 36.64184541 76.79681318 39 77 C39 78.32 39 79.64 39 81 C26.13 81 13.26 81 0 81 C0 54.27 0 27.54 0 0 Z " fill="#697781" transform="translate(0,429)"/>
<path d="M0 0 C0.88875824 0.00149048 1.77751648 0.00298096 2.69320679 0.0045166 C16.90729416 0.04717048 30.73094011 0.83251616 44.75 3.3125 C45.5857959 3.44640137 46.4215918 3.58030273 47.28271484 3.71826172 C81.12127722 9.14849202 114.26165044 23.23521053 139.75 46.3125 C140.64203125 47.07304688 141.5340625 47.83359375 142.453125 48.6171875 C152.99061114 57.70011267 160.52563374 68.56202476 167.75 80.3125 C168.65105469 81.66214844 168.65105469 81.66214844 169.5703125 83.0390625 C170.15425781 84.16441406 170.15425781 84.16441406 170.75 85.3125 C170.42 86.3025 170.09 87.2925 169.75 88.3125 C169.15574219 87.51328125 168.56148438 86.7140625 167.94921875 85.890625 C136.86821916 44.51491754 92.02181596 23.620753 41.75 15.3125 C40.74904297 15.13444824 39.74808594 14.95639648 38.71679688 14.77294922 C26.19853057 12.7955438 13.64431574 12.91671066 1 12.9375 C-0.18086182 12.93771149 -1.36172363 12.93792297 -2.57836914 12.93814087 C-19.81220006 12.96900542 -36.36693615 13.57290898 -53.25 17.3125 C-54.16894043 17.49973633 -55.08788086 17.68697266 -56.03466797 17.87988281 C-98.24465809 26.48385545 -142.79575798 48.43569386 -167.26953125 85.359375 C-168.65235486 87.65220666 -169.98711641 89.95192013 -171.25 92.3125 C-171.91 91.9825 -172.57 91.6525 -173.25 91.3125 C-151.43778923 50.32922298 -118.36024845 24.31456925 -74.19921875 10.359375 C-49.70762246 2.8865112 -25.56141098 -0.1072452 0 0 Z " fill="#687680" transform="translate(305.25,-0.3125)"/>
<path d="M0 0 C0.71705109 0.00093658 1.43410217 0.00187317 2.17288208 0.00283813 C50.84414547 0.1396252 100.24753352 11.99963594 137.9375 44.1875 C138.73994141 44.87030029 138.73994141 44.87030029 139.55859375 45.56689453 C154.65919395 58.55839501 165.55076483 74.23002 173.9375 92.1875 C173.2775 92.1875 172.6175 92.1875 171.9375 92.1875 C170.91509183 90.68755986 169.97236382 89.13325992 169.0625 87.5625 C150.84251913 58.21437347 120.14123184 38.78754446 88.32226562 27.06933594 C86.136536 26.26109931 83.96728665 25.41855551 81.796875 24.5703125 C61.173879 16.83268082 37.37119883 13.11120724 15.4140625 12.94921875 C14.32291641 12.9394249 13.23177032 12.92963104 12.1075592 12.91954041 C-20.69148655 12.53754622 -20.69148655 12.53754622 -53.0625 17.1875 C-54.06796875 17.40180664 -55.0734375 17.61611328 -56.109375 17.83691406 C-100.44663042 27.40340102 -142.57344318 49.26957582 -168.3828125 87.5703125 C-170.03199903 90.03755516 -170.03199903 90.03755516 -171.0625 92.1875 C-171.7225 91.8575 -172.3825 91.5275 -173.0625 91.1875 C-150.70304046 49.17598939 -116.76149188 23.59880001 -71.625 9.375 C-61.59601155 6.33460441 -51.53360528 4.17307119 -41.1875 2.5625 C-40.40987305 2.4392334 -39.63224609 2.3159668 -38.83105469 2.18896484 C-25.96714765 0.2854436 -12.9838539 -0.02221669 0 0 Z " fill="#687680" transform="translate(305.0625,67.8125)"/>
<path d="M0 0 C1.70428741 0.29118326 3.40869328 0.58167513 5.11328125 0.87109375 C30.79255435 5.56859136 56.22174864 17.28347609 77 33 C77.90621094 33.68320313 78.81242187 34.36640625 79.74609375 35.0703125 C95.99626392 47.85346523 110.81790051 63.74105102 119 83 C118.67 83.66 118.34 84.32 118 85 C117.319375 84.030625 116.63875 83.06125 115.9375 82.0625 C92.65302304 49.5836608 60.62228757 30.02704454 23 18 C22.26201172 17.76152344 21.52402344 17.52304688 20.76367188 17.27734375 C1.31537848 11.10608111 -19.61257423 7.90093337 -40.01171875 7.796875 C-40.93486374 7.78995132 -41.85800873 7.78302765 -42.80912781 7.77589417 C-45.76862898 7.75871822 -48.72795135 7.75230835 -51.6875 7.75 C-52.69588928 7.74866058 -53.70427856 7.74732117 -54.7432251 7.74594116 C-69.39652525 7.75017108 -83.57394424 8.21790159 -98 11 C-99.37613606 11.24312907 -100.75243198 11.48535557 -102.12890625 11.7265625 C-105.77473213 12.40711666 -109.38359196 13.17845519 -113 14 C-114.21945313 14.26296875 -115.43890625 14.5259375 -116.6953125 14.796875 C-157.70468339 24.24145739 -198.25671924 47.38507886 -222 83 C-222.33 82.34 -222.66 81.68 -223 81 C-217.97673696 70.04135511 -211.19315431 60.76055454 -203 52 C-202.21713623 51.14559326 -202.21713623 51.14559326 -201.41845703 50.27392578 C-151.46293074 -3.86322902 -68.69064535 -12.82107304 0 0 Z " fill="#687680" transform="translate(358,50)"/>
<path d="M0 0 C2.13756046 0.40919703 4.27801795 0.76393254 6.42724609 1.10595703 C49.04086853 8.11607799 91.92669988 29.77194477 117.79052734 65.16455078 C122.75887645 72.55677894 128.34372134 80.94913277 131.16552734 89.41455078 C130.50552734 89.41455078 129.84552734 89.41455078 129.16552734 89.41455078 C128.12100239 87.89496491 127.15728459 86.31973863 126.22802734 84.72705078 C121.86816087 77.67859998 116.67625922 71.57310592 111.16552734 65.41455078 C110.54291016 64.70685547 109.92029297 63.99916016 109.27880859 63.27001953 C97.48938278 50.68580097 82.26857186 41.43793823 67.16552734 33.41455078 C66.53501465 33.0772998 65.90450195 32.74004883 65.25488281 32.39257812 C12.97772759 4.94241299 -52.60166822 3.91538021 -108.83447266 17.41455078 C-109.64029785 17.60243164 -110.44612305 17.7903125 -111.27636719 17.98388672 C-150.73213511 27.33327882 -187.37977277 50.54818164 -210.62695312 83.83984375 C-211.91046344 85.51364916 -213.31393564 86.95556062 -214.83447266 88.41455078 C-211.26042956 76.54298049 -203.93893011 66.60145289 -195.83447266 57.41455078 C-195.10228516 56.56119141 -194.37009766 55.70783203 -193.61572266 54.82861328 C-171.43098609 29.44115066 -140.56158925 13.31649157 -108.20800781 5.03466797 C-106.10393597 4.48495161 -104.02296223 3.88987651 -101.93994141 3.26611328 C-70.72192523 -5.577329 -31.78348958 -6.11141454 0 0 Z " fill="#687680" transform="translate(347.83447265625,93.58544921875)"/>
<path d="M0 0 C1.00957764 0.00182281 2.01915527 0.00364563 3.05932617 0.00552368 C18.71563803 0.0530374 34.04921741 0.55845802 49.5 3.3125 C50.86294189 3.54598145 50.86294189 3.54598145 52.25341797 3.78417969 C94.76623037 11.36791443 137.84497536 33.68090758 163.24169922 69.44140625 C172.82246641 83.68801078 172.82246641 83.68801078 174.5 91.3125 C171.71896168 88.73260597 169.60282031 85.8122548 167.375 82.75 C163.08664274 76.94472691 158.4517955 71.56803017 153.5 66.3125 C152.95085937 65.71050781 152.40171875 65.10851562 151.8359375 64.48828125 C124.71914361 35.83531431 83.30362282 21.69698928 45.5 15.3125 C44.75443848 15.18649414 44.00887695 15.06048828 43.24072266 14.93066406 C30.16126316 12.78105282 17.05336742 12.0461374 3.8125 12 C3.08433075 11.99738159 2.3561615 11.99476318 1.60592651 11.99206543 C-14.96138542 11.98578101 -31.14712695 13.75757918 -47.5 16.3125 C-48.90741455 16.5288208 -48.90741455 16.5288208 -50.34326172 16.74951172 C-70.91365781 20.06861533 -91.30181193 27.22649589 -109.5 37.3125 C-110.42683594 37.77785156 -111.35367188 38.24320313 -112.30859375 38.72265625 C-126.63811788 46.0258164 -139.05474801 56.13035725 -150.5 67.3125 C-151.47453125 68.19421875 -151.47453125 68.19421875 -152.46875 69.09375 C-158.79209004 74.93985683 -163.52945421 82.32856857 -168.5 89.3125 C-168.83 88.6525 -169.16 87.9925 -169.5 87.3125 C-168.27014877 84.72588415 -166.98708145 82.28971394 -165.5625 79.8125 C-164.9427832 78.72654541 -164.9427832 78.72654541 -164.31054688 77.61865234 C-160.87291723 71.71861647 -157.02010184 66.43703406 -152.5 61.3125 C-151.81421875 60.50683594 -151.1284375 59.70117188 -150.421875 58.87109375 C-112.96003047 15.81692351 -55.311692 -0.20761793 0 0 Z " fill="#687680" transform="translate(303.5,22.6875)"/>
<path d="M0 0 C1.17134222 3.62350621 2.33627802 7.24903999 3.5 10.875 C3.83386719 11.90753906 4.16773438 12.94007813 4.51171875 14.00390625 C4.82753906 14.99003906 5.14335937 15.97617187 5.46875 16.9921875 C5.76201172 17.90339355 6.05527344 18.81459961 6.35742188 19.75341797 C7 22 7 22 7 24 C5.35 24.33 3.7 24.66 2 25 C1.45472656 24.27554687 0.90945313 23.55109375 0.34765625 22.8046875 C-5.69685096 15.05531928 -12.03263467 8.16681855 -22 6 C-27.24726145 5.53149451 -30.5246501 6.18989658 -35 9 C-37.69943283 13.04914924 -37.75563911 16.24786959 -37 21 C-32.54008955 28.26800222 -22.142616 30.02877087 -14.4375 32.4375 C-5.04999895 35.5493788 3.5025836 39.45760745 9 48 C12.01684884 54.25868302 12.19707751 61.17897134 10.125 67.79296875 C6.48666939 75.70394418 1.71000696 80.11621015 -6.3125 83.375 C-14.76983197 86.136342 -21.41186745 85.43079305 -29.7421875 82.67578125 C-34.53393192 81.24157401 -37.70123488 81.70732527 -42 84 C-43.32 84 -44.64 84 -46 84 C-47.03439955 80.23275337 -48.0501696 76.46073148 -49.0625 72.6875 C-49.50432617 71.0797168 -49.50432617 71.0797168 -49.95507812 69.43945312 C-50.22900391 68.41142578 -50.50292969 67.38339844 -50.78515625 66.32421875 C-51.04176025 65.37635498 -51.29836426 64.42849121 -51.56274414 63.4519043 C-52 61 -52 61 -51 58 C-48.875 58 -48.875 58 -46 59 C-44.31851744 60.88396475 -42.9087155 62.8798782 -41.45703125 64.9453125 C-37.04568957 71.16613213 -29.7407121 77.64306242 -22 79 C-16.15739268 79.38312179 -12.21267198 79.00731076 -7 76 C-4.09986857 72.80241919 -2.74316395 70.20070768 -2.4375 65.9375 C-2.70500763 61.99856155 -2.70500763 61.99856155 -4.875 59.25 C-9.95354734 55.59344592 -15.51348397 53.83738341 -21.41015625 51.8515625 C-32.94251227 47.91123629 -43.57140636 43.65588757 -49.375 32.3125 C-50.88099204 24.33074219 -51.1672515 17.01787486 -46.69921875 9.9765625 C-43.01918364 5.69587798 -38.32660298 2.77553433 -33 1 C-30.36227423 0.87751381 -27.76254205 0.81487616 -25.125 0.8125 C-24.41730469 0.80025391 -23.70960938 0.78800781 -22.98046875 0.77539062 C-18.80842686 0.76373688 -15.79351531 1.33699769 -12 3 C-7.59820443 2.69642789 -3.91625703 0 0 0 Z " fill="#67757F" transform="translate(500,427)"/>
<path d="M0 0 C21.78 0 43.56 0 66 0 C67.40072489 4.20217466 68.78986278 8.40201043 70.125 12.625 C70.47820312 13.73101562 70.83140625 14.83703125 71.1953125 15.9765625 C72 19 72 19 72 23 C70.35 23.33 68.7 23.66 67 24 C66.6596875 23.50371094 66.319375 23.00742187 65.96875 22.49609375 C60.98366206 15.5090157 55.89374072 9.89366397 47.734375 6.796875 C46.84459961 6.45495117 45.95482422 6.11302734 45.03808594 5.76074219 C44.36551758 5.50969727 43.69294922 5.25865234 43 5 C43.03804503 13.66690929 43.09738847 22.33333503 43.18390274 30.999897 C43.22340667 35.02419919 43.25558057 39.04828163 43.27099609 43.07275391 C43.2861439 46.95689241 43.32055486 50.84042688 43.36830902 54.72429657 C43.38314242 56.20579528 43.39104214 57.68738022 43.39188385 59.16895294 C43.3942496 61.24512571 43.42129206 63.31962377 43.45410156 65.39550781 C43.46298401 66.57687317 43.47186646 67.75823853 43.48101807 68.97540283 C44.10500197 72.61194553 45.10231284 73.78501704 48 76 C50.64184541 76.79681318 50.64184541 76.79681318 53 77 C53 78.32 53 79.64 53 81 C40.13 81 27.26 81 14 81 C14 79.68 14 78.36 14 77 C14.56589844 76.79503906 15.13179687 76.59007812 15.71484375 76.37890625 C16.44832031 76.10949219 17.18179688 75.84007812 17.9375 75.5625 C18.66839844 75.29566406 19.39929688 75.02882813 20.15234375 74.75390625 C21.98305678 74.14613052 21.98305678 74.14613052 23 73 C23.1238634 70.9145818 23.17799067 68.82499859 23.20532227 66.73608398 C23.22017166 65.7556311 23.22017166 65.7556311 23.23532104 64.75537109 C23.26701634 62.58564936 23.29172492 60.4159057 23.31640625 58.24609375 C23.33696887 56.74536048 23.35796515 55.2446331 23.37937927 53.74391174 C23.43467155 49.78688307 23.48404911 45.82980151 23.53222656 41.87268066 C23.5823895 37.8375984 23.63810268 33.80259328 23.69335938 29.76757812 C23.8010284 21.84511723 23.90245379 13.92259196 24 6 C22.54873706 6.47036173 21.09858938 6.94416552 19.64892578 7.41943359 C18.84125763 7.68291595 18.03358948 7.94639832 17.20144653 8.21786499 C9.43152978 10.97837896 4.62241599 17.49972751 0 24 C-1.65 23.67 -3.3 23.34 -5 23 C-4.5978125 21.205625 -4.5978125 21.205625 -4.1875 19.375 C-2.76208701 12.92313066 -1.38445337 6.46078238 0 0 Z " fill="#6A7881" transform="translate(539,429)"/>
<path d="M0 0 C13.2 0 26.4 0 40 0 C40 1.65 40 3.3 40 5 C35.545 5.495 35.545 5.495 31 6 C30.0044497 8.98665091 29.86774789 10.97559525 29.85473633 14.09472656 C29.84835648 15.13300598 29.84197662 16.1712854 29.83540344 17.24102783 C29.83429062 18.3628949 29.8331778 19.48476196 29.83203125 20.640625 C29.82870285 21.79616882 29.82537445 22.95171265 29.82194519 24.14227295 C29.81687826 26.59012453 29.81453679 29.03798303 29.81469727 31.48583984 C29.81251684 35.22114555 29.79437508 38.95615306 29.77539062 42.69140625 C29.77245541 45.07031149 29.77047147 47.44921813 29.76953125 49.828125 C29.76234573 50.94189514 29.75516022 52.05566528 29.74775696 53.20318604 C29.77027282 60.89395753 30.22007574 67.62676765 35 74 C40.65517055 78.12647604 46.25921452 77.70827094 53 77 C57.06637274 75.98340682 59.87278716 74.57875717 62.3359375 71.12890625 C65.14824656 65.85333358 66.12404042 60.75990806 66.12939453 54.79833984 C66.13412277 53.28184341 66.13412277 53.28184341 66.13894653 51.73471069 C66.1369223 50.65436554 66.13489807 49.57402039 66.1328125 48.4609375 C66.13424759 46.7842247 66.13424759 46.7842247 66.13571167 45.07363892 C66.13639118 42.71510766 66.13455288 40.35657452 66.13037109 37.99804688 C66.12500959 34.38146794 66.13032904 30.76501263 66.13671875 27.1484375 C66.13605813 24.85677056 66.13477729 22.56510369 66.1328125 20.2734375 C66.13584885 18.64684708 66.13584885 18.64684708 66.13894653 16.98739624 C66.13579437 15.98270294 66.13264221 14.97800964 66.12939453 13.94287109 C66.12859894 13.05860443 66.12780334 12.17433777 66.12698364 11.26327515 C66.08994857 8.83219934 66.08994857 8.83219934 65 6 C62.03 5.67 59.06 5.34 56 5 C56 3.35 56 1.7 56 0 C65.24 0 74.48 0 84 0 C84 1.65 84 3.3 84 5 C82.906875 5.103125 81.81375 5.20625 80.6875 5.3125 C76.54954968 6.05123283 76.54954968 6.05123283 74 9 C73.54180867 11.34020826 73.54180867 11.34020826 73.59936523 13.98706055 C73.58602646 15.00209152 73.57268768 16.0171225 73.5589447 17.06291199 C73.55882889 18.15976822 73.55871307 19.25662445 73.55859375 20.38671875 C73.54538589 21.51769485 73.53217804 22.64867096 73.51856995 23.81391907 C73.47759948 27.43847058 73.4559972 31.0627691 73.4375 34.6875 C73.41366175 38.29429912 73.38540519 41.90086158 73.34571838 45.50752258 C73.32150369 47.75238331 73.30652969 49.99736838 73.30210876 52.24235535 C73.21681888 60.87290703 72.56656678 68.00203034 67 75 C58.13381047 82.7849469 46.54422925 83.53461531 35 82.9375 C26.32044036 81.76602569 19.99412421 77.73831367 14.375 71.16015625 C10.33564279 64.81423427 10.70533866 58.22512998 10.69140625 50.9609375 C10.66626121 48.58333072 10.64086298 46.20572661 10.61523438 43.828125 C10.58642152 40.09082647 10.56239284 36.35357398 10.54370117 32.61621094 C10.52210157 29.00171985 10.48268363 25.38774945 10.44140625 21.7734375 C10.44129044 20.65359467 10.44117462 19.53375183 10.4410553 18.37997437 C10.42771652 17.33854279 10.41437775 16.29711121 10.40063477 15.22412109 C10.39556412 14.30956146 10.39049347 13.39500183 10.38526917 12.45272827 C9.91948962 9.48744904 9.1052414 8.12368183 7 6 C3.39534252 5.18685089 3.39534252 5.18685089 0 5 C0 3.35 0 1.7 0 0 Z " fill="#687680" transform="translate(343,429)"/>
<path d="M0 0 C21.78 0 43.56 0 66 0 C71 19 71 19 71 23 C69.68 23.33 68.36 23.66 67 24 C66.5153125 23.34773438 66.030625 22.69546875 65.53125 22.0234375 C60.00605217 14.81942956 55.10380697 9.27925904 46.35327148 6.42163086 C45.53914291 6.1545079 44.72501434 5.88738495 43.88621521 5.61216736 C43.26376419 5.41015213 42.64131317 5.2081369 42 5 C42.10764892 13.38867501 42.22031186 21.77726144 42.33933926 30.16578197 C42.39445432 34.06109556 42.44785567 37.9564168 42.49731445 41.85180664 C42.5451269 45.61252991 42.59747509 49.37316543 42.65294075 53.13378334 C42.67328803 54.56703818 42.69201337 56.00031701 42.70907402 57.43361473 C42.73328737 59.44432523 42.76385287 61.45495617 42.79467773 63.46557617 C42.81799416 65.18099861 42.81799416 65.18099861 42.84178162 66.93107605 C42.98597489 69.72795823 43.36583115 72.27726706 44 75 C46.97 75.66 49.94 76.32 53 77 C53 78.32 53 79.64 53 81 C39.8 81 26.6 81 13 81 C13 79.68 13 78.36 13 77 C13.63808594 76.81824219 14.27617187 76.63648438 14.93359375 76.44921875 C15.75988281 76.19785156 16.58617187 75.94648438 17.4375 75.6875 C18.26121094 75.44386719 19.08492187 75.20023437 19.93359375 74.94921875 C20.61550781 74.63597656 21.29742187 74.32273437 22 74 C23.11016344 70.66950968 23.15852609 68.11054334 23.20532227 64.60083008 C23.22017166 63.63456947 23.22017166 63.63456947 23.23532104 62.64878845 C23.26687467 60.5224066 23.29166905 58.39600242 23.31640625 56.26953125 C23.33698109 54.79407678 23.3579777 53.31862814 23.37937927 51.84318542 C23.43454526 47.96180949 23.48397862 44.08038085 23.53222656 40.19891357 C23.58248158 36.23737909 23.63814676 32.27592106 23.69335938 28.31445312 C23.80087399 20.54303351 23.90233377 12.77155028 24 5 C22.39358675 5.61671673 20.78964349 6.23986976 19.18676758 6.86572266 C17.84658318 7.38520981 17.84658318 7.38520981 16.47932434 7.91519165 C13.35836842 9.28074072 11.14121076 11.02438633 8.6875 13.375 C7.45966797 14.54482422 7.45966797 14.54482422 6.20703125 15.73828125 C3.62358598 18.38574109 1.25474565 21.06883065 -1 24 C-2.32 23.67 -3.64 23.34 -5 23 C-4.7349096 21.41569504 -4.46244741 19.83262411 -4.1875 18.25 C-4.03667969 17.36828125 -3.88585937 16.4865625 -3.73046875 15.578125 C-2.66244234 10.34650902 -1.2950241 5.1800964 0 0 Z " fill="#67757F" transform="translate(145,429)"/>
<path d="M0 0 C1.265625 1.44921875 1.265625 1.44921875 1.265625 3.44921875 C-2.82864083 2.74888381 -6.56381754 1.49545272 -10.484375 0.13671875 C-30.12018866 -6.03492437 -49.35495109 -6.92179754 -69.796875 -6.92578125 C-70.8576828 -6.92768463 -71.9184906 -6.92958801 -73.01144409 -6.93154907 C-94.02148855 -6.92728835 -113.78640226 -4.96008385 -133.89453125 1.58203125 C-136.49932526 2.3774429 -139.05599338 2.96760151 -141.734375 3.44921875 C-138.53439212 -3.95372672 -130.77935428 -7.36186156 -123.703125 -10.39453125 C-88.4333662 -24.13117415 -30.39191714 -27.17475474 0 0 Z " fill="#697780" transform="translate(375.734375,318.55078125)"/>
<path d="M0 0 C1.8125 1.70703125 1.8125 1.70703125 3 3.1875 C3 3.8475 3 4.5075 3 5.1875 C-1.42135015 4.41182453 -5.6524735 3.1215988 -9.9375 1.8125 C-24.46194286 -2.53354443 -38.45722962 -4.94276713 -53.62890625 -5.05078125 C-54.73564194 -5.058853 -55.84237762 -5.06692474 -56.98265076 -5.07524109 C-59.3232978 -5.08901836 -61.6639644 -5.09976868 -64.00463867 -5.10766602 C-66.34975259 -5.11909147 -68.69484251 -5.13938981 -71.03979492 -5.16918945 C-91.95423166 -5.43407901 -111.98125362 -3.69967261 -131.85546875 3.13671875 C-134.57674972 4.04606606 -137.17708716 4.70372398 -140 5.1875 C-136.84986197 -2.10013277 -129.2030463 -5.61101384 -122.2109375 -8.58984375 C-87.44264857 -21.82886375 -30.56131089 -25.87200922 0 0 Z " fill="#697780" transform="translate(374,293.8125)"/>
<path d="M0 0 C1.71465344 1.79240622 2.66107383 3.44268687 3.63671875 5.7109375 C2.52296875 5.3190625 1.40921875 4.9271875 0.26171875 4.5234375 C-21.63668175 -2.68492834 -42.48231427 -5.81378811 -65.56298828 -5.68017578 C-68.86012112 -5.66407793 -72.15602869 -5.6801321 -75.453125 -5.69921875 C-97.250856 -5.72069274 -119.39296081 -3.58559098 -139.36328125 5.7109375 C-140.02328125 5.3809375 -140.68328125 5.0509375 -141.36328125 4.7109375 C-132.36651207 -8.46290309 -114.74882806 -12.18965401 -100.05078125 -15.5390625 C-99.3345459 -15.70237061 -98.61831055 -15.86567871 -97.88037109 -16.03393555 C-67.85557598 -22.49239766 -24.83043795 -20.1481268 0 0 Z " fill="#697781" transform="translate(374.36328125,340.2890625)"/>
<path d="M0 0 C1.85770822 1.92342903 3.40709935 3.84187653 5 6 C0.84114095 5.28322694 -3.00361641 4.03211656 -7 2.6875 C-13.52573481 0.57770491 -20.07692689 -0.9674648 -26.8125 -2.25 C-27.65876953 -2.41282471 -28.50503906 -2.57564941 -29.37695312 -2.7434082 C-41.09290889 -4.88277445 -52.68293442 -5.18643591 -64.55859375 -5.18530273 C-67.09913186 -5.18747785 -69.6392264 -5.20566173 -72.1796875 -5.22460938 C-86.44355766 -5.27448577 -100.32471737 -4.02467221 -114.3125 -1.125 C-115.56341431 -0.87109497 -115.56341431 -0.87109497 -116.83959961 -0.61206055 C-123.40864622 0.76972418 -129.71322073 2.63829985 -136 5 C-136.99 5.33 -137.98 5.66 -139 6 C-135.32315248 -2.12043101 -127.31538754 -6.17703254 -119.26806641 -9.23242188 C-84.95529802 -20.84483779 -30.02087041 -25.37781207 0 0 Z " fill="#687680" transform="translate(373,178)"/>
<path d="M0 0 C0.77839737 -0.00979385 1.55679474 -0.01958771 2.35877991 -0.02967834 C34.70072978 -0.35323677 34.70072978 -0.35323677 49.609375 4.23828125 C50.36428223 4.46322266 51.11918945 4.68816406 51.89697266 4.91992188 C64.03924805 8.62149313 74.72269713 12.86107352 82.609375 23.23828125 C82.00134033 23.05072266 81.39330566 22.86316406 80.7668457 22.66992188 C71.14435546 19.73728307 61.44186453 17.35547678 51.609375 15.23828125 C50.83352051 15.06731934 50.05766602 14.89635742 49.25830078 14.72021484 C36.25024368 11.98809729 23.15549933 11.95261618 9.921875 11.92578125 C8.61917664 11.92026749 8.61917664 11.92026749 7.29016113 11.91464233 C-7.78101856 11.88138401 -22.91573232 12.56780577 -37.640625 16.05078125 C-38.37023437 16.21602295 -39.09984375 16.38126465 -39.8515625 16.55151367 C-46.01775981 18.01048 -51.87679882 20.05863457 -57.765625 22.3828125 C-60.390625 23.23828125 -60.390625 23.23828125 -62.390625 22.23828125 C-48.30886753 5.34017228 -20.96387616 0.21868703 0 0 Z " fill="#687680" transform="translate(295.390625,137.76171875)"/>
<path d="M0 0 C2.00769721 1.98880123 3.34881918 3.80447877 4.9375 6.1875 C3.54146057 5.77152437 2.14568801 5.35465317 0.75 4.9375 C-0.57572021 4.54256348 -0.57572021 4.54256348 -1.92822266 4.13964844 C-3.97365849 3.51827441 -6.0138756 2.87937476 -8.04760742 2.22070312 C-49.72108567 -11.16071889 -99.07806059 -7.79839489 -140.0625 6.1875 C-127.53044216 -9.92781788 -105.55090836 -14.246083 -86.25 -17.125 C-59.830911 -20.10139951 -21.34069837 -18.21484563 0 0 Z " fill="#687680" transform="translate(373.0625,131.8125)"/>
<path d="M0 0 C0.68480438 -0.00261841 1.36960876 -0.00523682 2.07516479 -0.00793457 C14.19880175 -0.01288061 25.55403033 1.3275757 37.3125 4.3125 C38.57578125 4.60125 39.8390625 4.89 41.140625 5.1875 C47.74656187 6.84638998 53.77454596 9.27091834 59.875 12.25 C60.54249268 12.57387695 61.20998535 12.89775391 61.89770508 13.23144531 C66.06570573 15.36768486 69.21920335 17.7086016 72.3125 21.3125 C72.3125 21.9725 72.3125 22.6325 72.3125 23.3125 C70.66574171 22.87849454 69.02015047 22.44006083 67.375 22 C66.45847656 21.75636719 65.54195312 21.51273437 64.59765625 21.26171875 C62.0684728 20.53093209 59.64020006 19.72042139 57.1640625 18.83984375 C51.7483232 17.01759342 46.25760608 16.08313934 40.625 15.1875 C39.55483643 15.01573242 38.48467285 14.84396484 37.38208008 14.66699219 C14.31132675 11.06136652 -9.55669987 11.07168735 -32.6875 14.3125 C-33.4211377 14.41433594 -34.15477539 14.51617187 -34.91064453 14.62109375 C-44.5899097 16.0214429 -53.84122846 18.3242605 -63.17578125 21.2265625 C-65.67615821 21.99976027 -68.14040548 22.72319793 -70.6875 23.3125 C-66.96894988 14.88258299 -57.49153188 11.29371612 -49.3984375 7.98828125 C-33.56763491 2.02013016 -16.79265244 0.06146449 0 0 Z " fill="#687680" transform="translate(304.6875,252.6875)"/>
<path d="M0 0 C1.25390625 1.4453125 1.25390625 1.4453125 1.25390625 3.4453125 C-0.00421875 3.0534375 -1.26234375 2.6615625 -2.55859375 2.2578125 C-4.61903585 1.64666442 -6.68194485 1.04382143 -8.74609375 0.4453125 C-9.76799805 0.14802246 -9.76799805 0.14802246 -10.81054688 -0.15527344 C-22.08539233 -3.39568178 -33.04901745 -5.64315612 -44.74609375 -6.5546875 C-45.44444336 -6.61108398 -46.14279297 -6.66748047 -46.86230469 -6.72558594 C-79.60711268 -9.26755771 -110.37748842 -6.29740727 -141.74609375 3.4453125 C-139.16109961 -3.53417168 -131.80953005 -6.91747658 -125.48144531 -9.87548828 C-119.34073262 -12.56952542 -112.9875207 -14.29404842 -106.49609375 -15.9296875 C-105.50303223 -16.18032959 -104.5099707 -16.43097168 -103.48681641 -16.68920898 C-72.03461225 -24.18317005 -25.44639095 -22.65696554 0 0 Z " fill="#687680" transform="translate(375.74609375,249.5546875)"/>
<path d="M0 0 C1.07483643 0.00081573 1.07483643 0.00081573 2.17138672 0.00164795 C24.09453871 0.07768552 53.31094461 3.18343383 70.1875 19.125 C72 21.375 72 21.375 72 23.375 C71.38979004 23.18744141 70.77958008 22.99988281 70.15087891 22.80664062 C36.08026065 12.44384771 0.33138983 8.98038628 -35 14.375 C-35.71994141 14.47683594 -36.43988281 14.57867187 -37.18164062 14.68359375 C-46.45884017 16.01242339 -55.09747059 18.13950302 -63.92578125 21.2890625 C-66.2861099 22.12282535 -68.5614674 22.83310387 -71 23.375 C-68.40889495 16.37901636 -61.12709894 12.97470397 -54.80078125 9.92578125 C-50.19659027 7.94896134 -45.43079629 6.52368579 -40.625 5.125 C-39.78831787 4.87886963 -38.95163574 4.63273926 -38.08959961 4.37915039 C-25.55628568 0.90360617 -12.95423899 -0.0373245 0 0 Z " fill="#687680" transform="translate(305,206.625)"/>
<path d="M0 0 C1.69140625 1.609375 1.69140625 1.609375 3.94140625 4.359375 C3.94140625 5.019375 3.94140625 5.679375 3.94140625 6.359375 C2.54536682 5.94339937 1.14959426 5.52652817 -0.24609375 5.109375 C-1.13240479 4.84608398 -2.01871582 4.58279297 -2.93188477 4.31152344 C-4.95388682 3.69578142 -6.9692369 3.05755487 -8.97558594 2.39257812 C-16.96439467 -0.21694679 -24.79086255 -1.82929265 -33.12109375 -2.890625 C-33.77289612 -2.97434357 -34.42469849 -3.05806213 -35.09625244 -3.14431763 C-70.27783573 -7.5458441 -105.44535628 -5.08091986 -139.05859375 6.359375 C-135.34178994 -1.81058055 -127.99858002 -4.98499428 -120.0625 -8.19140625 C-85.7713157 -20.94277316 -30.6978524 -24.46508161 0 0 Z " fill="#67757F" transform="translate(373.05859375,200.640625)"/>
<path d="M0 0 C4.7459893 0.99915564 7.33678686 2.18373768 10.4375 6 C13.39760804 11.68340744 13.49658777 16.69784973 13 23 C11.14199744 28.37842846 8.07836487 31.46081756 3 34 C0.44842345 34.0716735 -2.07472971 34.09308442 -4.625 34.0625 C-5.33140625 34.05798828 -6.0378125 34.05347656 -6.765625 34.04882812 C-8.51045275 34.03703875 -10.255237 34.01910324 -12 34 C-12.07418046 29.64009127 -12.12861544 25.28051721 -12.16479492 20.92016602 C-12.17987768 19.43702801 -12.20034689 17.95393456 -12.22631836 16.47094727 C-12.26272616 14.33859255 -12.27973073 12.20682765 -12.29296875 10.07421875 C-12.3086792 8.79119873 -12.32438965 7.50817871 -12.34057617 6.1862793 C-12 3 -12 3 -10.60546875 1.08276367 C-7.39029922 -1.08561784 -3.70488784 -0.43163742 0 0 Z " fill="#FCFCFB" transform="translate(41,434)"/>
<path d="M0 0 C4.70161183 4.21939523 4.70161183 4.21939523 5.875 7.2890625 C6.05196691 11.12703246 4.62836049 12.98131575 2.5625 16.1875 C2.19632568 16.75702393 1.83015137 17.32654785 1.45288086 17.91333008 C-2.0229887 23.22573274 -5.87036433 28.17947472 -10 33 C-11.04800781 34.24910156 -11.04800781 34.24910156 -12.1171875 35.5234375 C-17.52935963 41.78306719 -23.44257807 46.96989949 -30 52 C-30.85207031 52.66773438 -31.70414062 53.33546875 -32.58203125 54.0234375 C-45.88487574 64.11525057 -60.567547 70.8437932 -76 77 C-76.33 75.68 -76.66 74.36 -77 73 C-76.01902344 72.52691406 -75.03804688 72.05382812 -74.02734375 71.56640625 C-59.91482478 64.68556159 -46.86567847 57.39179702 -35 47 C-34.22140625 46.35417969 -33.4428125 45.70835937 -32.640625 45.04296875 C-18.40770808 32.99406839 -8.27151411 16.54302822 0 0 Z " fill="#697781" transform="translate(464,183)"/>
<path d="M0 0 C4.19894399 1.27406783 7.04968504 2.7256145 9.6953125 6.2734375 C12.40958344 11.94577617 11.72678073 18.60589879 9.9375 24.5 C6.652435 28.73879354 2.28624328 31.01426542 -3 32 C-4.91561254 32.06688591 -6.83335592 32.08531719 -8.75 32.0625 C-9.73484375 32.05347656 -10.7196875 32.04445313 -11.734375 32.03515625 C-12.48203125 32.02355469 -13.2296875 32.01195312 -14 32 C-14.07420211 27.92497206 -14.1286257 23.85020608 -14.16479492 19.7746582 C-14.17987397 18.38852081 -14.2003405 17.00243106 -14.22631836 15.61645508 C-14.26273716 13.62341854 -14.27813018 11.63003277 -14.29296875 9.63671875 C-14.31653442 7.83787231 -14.31653442 7.83787231 -14.34057617 6.00268555 C-14 3 -14 3 -12.6328125 1.11230469 C-8.99630876 -1.36495474 -4.1758446 -0.51272307 0 0 Z " fill="#FBFBFA" transform="translate(286,434)"/>
<path d="M0 0 C6 0 6 0 8.34165955 1.60839844 C10.47133987 4.67975014 10.51276428 6.54181389 10.53344727 10.265625 C10.5492836 11.53374023 10.56511993 12.80185547 10.58143616 14.10839844 C10.57759483 15.48893604 10.57255587 16.86947075 10.56640625 18.25 C10.57164248 19.6696005 10.57791896 21.08919752 10.58518982 22.50878906 C10.59559022 25.48128656 10.59103796 28.45330522 10.57641602 31.42578125 C10.55922073 35.23275693 10.58273159 39.03822435 10.61790562 42.84503174 C10.63987828 45.77565487 10.63843886 48.70591691 10.6301403 51.63659668 C10.62932082 53.04001521 10.63618383 54.44346026 10.65091133 55.84680176 C10.6683509 57.80925979 10.65049882 59.77193532 10.63110352 61.734375 C10.62966087 63.40838379 10.62966087 63.40838379 10.62818909 65.11621094 C10 68 10 68 7.77305603 70.39160156 C5 72 5 72 0 72 C0 48.24 0 24.48 0 0 Z " fill="#FEFEFD" transform="translate(0,434)"/>
<path d="M0 0 C3.72146032 2.64419549 6.05628957 4.44908063 7 9 C6.100027 11.92471608 4.6395597 14.47657835 3.125 17.125 C2.70734375 17.87982666 2.2896875 18.63465332 1.859375 19.41235352 C-3.91115557 29.64958076 -10.93009587 38.48322821 -19 47 C-19.83273437 47.8971875 -20.66546875 48.794375 -21.5234375 49.71875 C-33.40516637 62.12313556 -49.34790468 74.06604583 -66 79 C-66 77.68 -66 76.36 -66 75 C-64.71029297 74.30777344 -64.71029297 74.30777344 -63.39453125 73.6015625 C-54.60435497 68.78846155 -46.74139081 63.35426413 -39 57 C-38.17628906 56.33097656 -37.35257812 55.66195312 -36.50390625 54.97265625 C-19.51126368 40.57161255 -8.5279421 20.23756289 0 0 Z " fill="#697781" transform="translate(453,169)"/>
<path d="M0 0 C3.32759923 1.55194754 5.48580485 3.30621949 8 6 C3.23561812 22.67533657 -6.09324058 38.17285105 -17.921875 50.74609375 C-20.05483377 53.00333272 -20.05483377 53.00333272 -22.046875 55.58203125 C-29.42222363 64.71271285 -40.55442251 72.77721125 -51 78 C-51.66 78 -52.32 78 -53 78 C-52.71892278 74.67296356 -52.38118641 73.34036972 -49.84765625 71.078125 C-48.92855469 70.47484375 -48.00945312 69.8715625 -47.0625 69.25 C-22.96850879 52.52410675 -9.1299924 27.3058298 0 0 Z " fill="#697781" transform="translate(440,157)"/>
<path d="M0 0 C4.24822374 0.47202486 6.19989709 2.96655518 9 6 C0.28511717 31.5281616 -13.32330365 58.89305917 -37 74 C-37.66 74 -38.32 74 -39 74 C-39.5 71.4375 -39.5 71.4375 -39 68 C-37.5703125 66.5 -37.5703125 66.5 -35.625 64.9375 C-16.36570648 49.45520574 -6.10340846 23.18121482 0 0 Z " fill="#697781" transform="translate(426,147)"/>
<path d="M0 0 C3.0831351 1.19899698 6.06279492 2.47700477 9 4 C6.94788331 23.39040875 -4.16232801 44.59993385 -17 59 C-17.66644531 59.78503906 -18.33289063 60.57007813 -19.01953125 61.37890625 C-22.41504127 65.35531818 -22.41504127 65.35531818 -24 67 C-24.33 67 -24.66 67 -25 67 C-25.78065684 61.17605216 -25.59084517 57.16279356 -22 52.375 C-21.36191406 51.55 -20.72382813 50.725 -20.06640625 49.875 C-9.65699479 35.39234058 -4.18230438 17.12284617 0 0 Z " fill="#697781" transform="translate(412,138)"/>
<path d="M0 0 C8.58 0 17.16 0 26 0 C26 3.3 26 6.6 26 10 C17.42 10 8.84 10 0 10 C0 6.7 0 3.4 0 0 Z " fill="#65737D" transform="translate(92,467)"/>
<path d="M0 0 C0.33 0.99 0.66 1.98 1 3 C-0.36328125 5.12109375 -0.36328125 5.12109375 -2.3125 7.4375 C-4.61632607 10.19928744 -6.52399556 12.71083275 -8 16 C-8.66 15.67 -9.32 15.34 -10 15 C-8.90492668 12.86985737 -7.79958374 10.7462382 -6.6875 8.625 C-6.37876953 8.02171875 -6.07003906 7.4184375 -5.75195312 6.796875 C-4.07390572 3.61741675 -3.05193672 2.03462448 0 0 Z " fill="#808D96" transform="translate(142,144)"/>
<path d="M0 0 C0.33 0.99 0.66 1.98 1 3 C-0.36328125 5.12109375 -0.36328125 5.12109375 -2.3125 7.4375 C-4.61632607 10.19928744 -6.52399556 12.71083275 -8 16 C-8.66 15.67 -9.32 15.34 -10 15 C-8.90492668 12.86985737 -7.79958374 10.7462382 -6.6875 8.625 C-6.37876953 8.02171875 -6.07003906 7.4184375 -5.75195312 6.796875 C-4.07390572 3.61741675 -3.05193672 2.03462448 0 0 Z " fill="#808C96" transform="translate(142,76)"/>
<path d="M0 0 C0.33 0.99 0.66 1.98 1 3 C-0.65234375 5.48046875 -0.65234375 5.48046875 -2.9375 8.1875 C-3.68902344 9.08855469 -4.44054687 9.98960937 -5.21484375 10.91796875 C-5.80394531 11.60503906 -6.39304688 12.29210937 -7 13 C-7.33 12.34 -7.66 11.68 -8 11 C-7.109375 8.90625 -7.109375 8.90625 -5.75 6.5 C-5.31171875 5.7059375 -4.8734375 4.911875 -4.421875 4.09375 C-3 2 -3 2 0 0 Z " fill="#73818A" transform="translate(143,120)"/>
<path d="M0 0 C2.52394612 3.12488567 4.39701907 6.31314387 6 10 C5.67 10.66 5.34 11.32 5 12 C3.96386967 10.76265016 2.94652198 9.50955363 1.9375 8.25 C1.36902344 7.55390625 0.80054688 6.8578125 0.21484375 6.140625 C-1 4 -1 4 -0.68359375 1.734375 C-0.45800781 1.16203125 -0.23242188 0.5896875 0 0 Z " fill="#7C8993" transform="translate(471,123)"/>
<path d="M0 0 C2.52394612 3.12488567 4.39701907 6.31314387 6 10 C5.67 10.66 5.34 11.32 5 12 C0.09846827 5.92560175 0.09846827 5.92560175 -0.3125 2.0625 C-0.209375 1.381875 -0.10625 0.70125 0 0 Z " fill="#84919A" transform="translate(472,102)"/>
<path d="M0 0 C0.66 0.33 1.32 0.66 2 1 C0.515 2.485 0.515 2.485 -1 4 C-0.67 4.66 -0.34 5.32 0 6 C-1.65 6.33 -3.3 6.66 -5 7 C-3.70700306 4.11562221 -2.34058637 2.12780579 0 0 Z " fill="#7A8790" transform="translate(239,315)"/>
<path d="M0 0 C0.66 0.33 1.32 0.66 2 1 C-0.38957269 4.24299151 -2.2047869 6.50902342 -6 8 C-4.55746343 4.63408134 -2.66735273 2.48952921 0 0 Z " fill="#73818B" transform="translate(240,245)"/>
<path d="M0 0 C0.66 0.33 1.32 0.66 2 1 C-0.38957269 4.24299151 -2.2047869 6.50902342 -6 8 C-4.55746343 4.63408134 -2.66735273 2.48952921 0 0 Z " fill="#72808A" transform="translate(240,222)"/>
<path d="M0 0 C0.66 0.33 1.32 0.66 2 1 C0.515 2.485 0.515 2.485 -1 4 C-0.67 4.66 -0.34 5.32 0 6 C-1.65 6.33 -3.3 6.66 -5 7 C-3.70700306 4.11562221 -2.34058637 2.12780579 0 0 Z " fill="#76848D" transform="translate(239,292)"/>
<path d="M0 0 C0.66 0.99 1.32 1.98 2 3 C0.35 5.31 -1.3 7.62 -3 10 C-3.33 9.34 -3.66 8.68 -4 8 C-3.22265625 6.0546875 -3.22265625 6.0546875 -2.0625 3.875 C-1.49208984 2.78832031 -1.49208984 2.78832031 -0.91015625 1.6796875 C-0.60980469 1.12539062 -0.30945313 0.57109375 0 0 Z " fill="#7B8992" transform="translate(138,102)"/>
</svg>
