<?xml version="1.0" encoding="UTF-8"?>
<svg id="_レイヤー_2" data-name="レイヤー 2" xmlns="http://www.w3.org/2000/svg" viewBox="0 0 121.05 11.89">
  <defs>
    <style>
      .cls-1 {
        fill: #637684;
      }
    </style>
  </defs>
  <g id="_レイヤー_1-2" data-name="レイヤー 1">
    <g>
      <path class="cls-1" d="M2.94,4.85c.83.32,1.29.79,1.29,1.31,0,.33-.22.56-.53.56-.23,0-.35-.14-.39-.42-.06-.5-.18-.88-.37-1.18,0,1.99.02,5.15.02,5.74,0,.28-.25.42-.65.42-.34,0-.5-.09-.5-.38,0-.57.12-2.89.14-5.1-.54,1.27-1.13,2.04-1.82,2.72-.05.05-.15-.05-.13-.09.85-1.48,1.47-3.23,1.76-4.9h-.54c-.22,0-.45.02-.75.07l-.13-.43c.35.07.61.09.88.09h.65v-1.22c0-.6-.01-1.03-.06-1.5,1.41.15,1.52.21,1.52.39,0,.13-.11.22-.4.34v1.99h.21c.25-.53.39-.62.47-.62.11,0,.2.09.52.45.11.12.2.25.2.33s-.04.12-.15.12h-1.24v1.33ZM7.77,5.86c.32.69.77,1.31,1.37,1.85.62.56,1.38,1.02,2.24,1.34.06.02.06.12,0,.13-.39.09-.6.31-.83.79-.05.09-.08.13-.14.13s-.2-.07-.36-.19c-.53-.41-.97-.9-1.36-1.46-.4-.62-.77-1.36-1.08-2.37.07,3.6.11,4.32.11,4.76,0,.33-.22.47-.68.47-.35,0-.5-.12-.5-.4,0-.41.08-2.14.11-3.65-.86,1.3-2.02,2.26-3.4,2.9-.06.02-.12-.09-.07-.13,1.33-1.04,2.28-2.37,3.05-4.18h-.88c-.28,0-.55.02-.93.07l-.13-.43c.42.07.73.09,1.04.09h1.27v-2.18h-1.26c-.39.67-.85,1.18-1.42,1.68-.05.04-.14-.05-.11-.09.41-.69.77-1.62.97-2.46.13-.48.2-.93.2-1.29,1.14.32,1.41.42,1.41.6,0,.12-.11.16-.4.21-.16.41-.33.76-.5,1.09h1.1v-1.08c0-.73-.02-1.17-.08-1.58,1.43.13,1.52.15,1.52.34,0,.14-.12.22-.38.32v2.01h1.14c.52-.64.66-.74.74-.74.11,0,.22.09.73.52.22.19.32.29.32.38s-.04.12-.15.12h-2.77v2.18h1.49c.54-.73.68-.82.76-.82.11,0,.22.09.76.57.23.21.33.32.33.4s-.04.12-.15.12h-3.07Z"/>
      <path class="cls-1" d="M20.67,3.24c.07,1.43.21,2.35.46,3.18.32,1.03.79,1.87,1.46,2.53.28.28.53.45.65.45.18,0,.33-.27.77-1.4.02-.06.12-.01.12.05-.09,1.28-.09,1.36-.09,1.65,0,.21.01.25.19.49.08.13.13.26.13.4,0,.29-.21.5-.52.5-.34,0-.8-.2-1.27-.54-1.21-.87-2-2.19-2.44-3.6-.29-.92-.46-2.1-.55-3.72h-4.79c-.27,0-.54.02-.9.07l-.13-.43c.4.07.69.09.99.09h4.82c-.01-.34-.02-.69-.04-1.07-.01-.4-.01-.73-.07-1.29,1.43.16,1.49.2,1.49.38,0,.11-.08.18-.33.27.01.65.02,1.21.05,1.71h1.54c.55-.66.69-.75.77-.75.11,0,.22.09.73.52.22.2.32.3.32.39s-.03.12-.15.12h-3.19ZM16.2,5.59h-1.06c-.26,0-.5.02-.84.07l-.13-.43c.38.07.66.09.94.09h2.55c.56-.69.69-.79.77-.79.11,0,.22.08.74.53.23.21.33.33.33.41s-.04.12-.15.12h-1.95v2.99c.8-.19,1.57-.41,2.26-.66.06-.02.13.13.08.16-1.22.82-2.3,1.29-4.95,2.14-.09.37-.14.44-.27.44-.2,0-.35-.36-.65-1.55.43-.02.91-.07,1.4-.14.3-.05.61-.09.93-.15v-3.24ZM22.52,2.42c-.25,0-.34-.08-.59-.54-.14-.29-.4-.59-.77-.88-.05-.04-.04-.12.02-.12,1.21.11,1.83.43,1.83.99,0,.28-.25.55-.49.55Z"/>
      <path class="cls-1" d="M26.19,6.11c-.06.02-.13-.09-.08-.13,1.58-1.03,2.87-2.36,3.75-3.81.34-.57.62-1.17.82-1.78,1.65.45,1.67.46,1.67.6,0,.11-.09.16-.52.28.8,1.1,1.68,1.91,2.69,2.49.81.46,1.71.76,2.76.95.06.01.06.15,0,.15-.37.04-.63.33-.81.96-.05.16-.11.22-.2.22s-.29-.09-.55-.24c-.5-.28-1.21-.76-1.67-1.17-.97-.87-1.67-1.77-2.37-3.14-1.13,2.08-2.92,3.58-5.49,4.62ZM31.29,7.18c-.6,1.07-1.14,1.81-1.85,2.6,1.47-.01,2.93-.07,4.4-.15-.29-.6-.62-1.02-1.15-1.51-.05-.04.01-.14.07-.12,1.69.62,2.69,1.49,2.69,2.3,0,.45-.28.8-.65.8-.34,0-.41-.08-.7-.85-.05-.12-.08-.22-.13-.33-1.9.47-3.62.74-6.04.99-.08.35-.14.45-.28.45q-.19,0-.62-1.63c.53.05.79.06,1.51.06h.43c.34-.84.61-1.71.77-2.6h-2.05c-.25,0-.49.02-.82.07l-.13-.43c.38.07.67.09.95.09h6.94c.56-.7.7-.8.79-.8.11,0,.24.09.8.55.26.21.35.32.35.4s-.04.12-.15.12h-5.13ZM32.1,4.92c.52-.65.66-.74.74-.74.11,0,.22.09.73.52.22.19.32.29.32.38s-.04.12-.15.12h-4.05c-.21,0-.41.02-.69.07l-.13-.43c.34.07.59.09.84.09h2.39Z"/>
      <path class="cls-1" d="M40.51,6.61c-.54.39-1.14.72-1.78.99-.06.02-.15-.11-.11-.14,1.48-1.04,2.76-2.62,3.45-4.24h-2.28c-.22,0-.45.02-.74.09l-.13-.47c.35.07.61.09.87.09h.69v-1.43c0-.29-.01-.62-.07-1.02,1.36.14,1.51.27,1.51.4,0,.11-.13.21-.38.33v1.72h.5c.35-.39.45-.46.54-.46.12,0,.2.07.6.48.18.19.25.28.25.37,0,.12-.08.19-.37.29-.38.76-.88,1.45-1.48,2.06,1.26.32,1.91.8,1.91,1.42,0,.32-.26.59-.57.59-.27,0-.39-.12-.53-.49-.24-.6-.43-.92-.82-1.28v1.34c0,1.81.05,3.17.05,3.53,0,.33-.19.49-.74.49-.32,0-.43-.13-.43-.45,0-.19.06-.87.06-2.58v-1.65ZM46.46,10.35h1.18c.63-.81.77-.9.86-.9.11,0,.22.09.83.62.28.25.38.35.38.43s-.04.12-.15.12h-6.19c-.29,0-.59.02-.97.07l-.13-.43c.42.07.73.09,1.04.09h1.99v-5.26h-1.35c-.24,0-.47.02-.79.07l-.13-.43c.35.07.61.09.87.09h1.4v-2.56c0-.72-.02-1.28-.07-1.67,1.51.14,1.65.26,1.65.4,0,.12-.14.24-.42.35v3.47h1.04c.61-.72.75-.81.83-.81.11,0,.22.09.77.56.24.21.33.32.33.4s-.04.12-.15.12h-2.83v5.26Z"/>
      <path class="cls-1" d="M56.86,7.96c0,.4-.01.73.04,1.01.04.21.18.31.37.41.22.12.6.21,1.2.21,1.32,0,2.2-.15,2.95-.32.31-.09.54-.13.76-.13.59,0,1.01.28,1.01.7,0,.38-.18.48-.45.6-.26.1-.67.18-1.33.22-.82.06-1.6.1-2.3.1-1.61,0-2.57-.25-2.95-.75-.16-.21-.28-.41-.35-.67-.07-.25-.09-.66-.09-1.19.01-.89.01-1.82.01-2.73,0-.81.01-1.61.01-2.36,0-.56-.04-.67-.42-.88-.12-.06-.28-.12-.38-.15-.1-.03-.15-.07-.15-.13,0-.19.48-.38.79-.38.22,0,.6.1,1.14.41.51.29.67.51.67.78,0,.22-.07.37-.22.5-.12.12-.16.21-.19.69-.04.59-.09,1.29-.1,2.08.7-.22,1.45-.53,2.17-.88.51-.25,1.3-.69,1.77-1.01.15-.1.24-.16.24-.26,0-.12-.13-.26-.25-.38-.15-.15-.22-.21-.22-.26,0-.07.15-.13.31-.13.45,0,.67.09,1.28.63.4.37.6.67.59.92,0,.29-.16.4-.51.47-.16.03-.26.07-.53.16-.79.28-1.54.5-2.27.69-.88.23-1.73.4-2.58.53,0,.42-.01,1.03-.01,1.51ZM64.42,1.57c0,.67-.54,1.22-1.22,1.22s-1.22-.54-1.22-1.22.54-1.22,1.22-1.22,1.22.53,1.22,1.22ZM62.4,1.57c0,.43.37.79.81.79s.79-.37.79-.79-.37-.81-.79-.81-.81.37-.81.81Z"/>
      <path class="cls-1" d="M75.69,6.51c-.39,0-1.23-.07-1.84-.07-.98,0-3.13.06-4.66.22-.6.06-1.06.15-1.23.28-.09.07-.19.12-.34.12-.32,0-.61-.35-1-1.01-.19-.31-.24-.5-.24-.79,0-.23.07-.35.15-.35.04,0,.1.06.16.13.46.53.69.56,1.05.56.34,0,.57-.01,1.31-.07,1.54-.12,3.19-.21,4.41-.24.48-.01.81-.1.97-.2.12-.07.25-.12.35-.12.16,0,.36.04.56.15.47.24.8.45.8.82,0,.28-.16.59-.45.59Z"/>
      <path class="cls-1" d="M84.11,5.06c.88.37,1.36.82,1.36,1.48,0,.47-.34.78-.63.78-.26,0-.53-.09-.81-.43-.35-.41-.69-.78-1.05-1.07-.47-.38-.97-.67-1.52-.84v2.55c0,.62.03,1.96.06,3.55,0,.56-.25.69-.54.69-.21,0-.47-.07-.62-.34-.23-.4-.32-.88-.32-1.16,0-.07.03-.34.07-.42.04-.09.07-.16.07-.25.01-.19.04-.6.06-3.28.01-1.39,0-2.64,0-4.02,0-.38,0-1.04-.06-1.25-.04-.13-.16-.25-.31-.34-.22-.13-.4-.21-.51-.24-.1-.03-.15-.07-.15-.13,0-.09.1-.16.19-.22.12-.07.28-.13.41-.13.34,0,.78.07,1.48.4.4.18.59.41.59.69,0,.18-.09.32-.25.47-.06.06-.09.15-.1.29-.04.41-.07,1.28-.07,2.64.88.04,1.83.23,2.65.57Z"/>
      <path class="cls-1" d="M91.28,3.68c.88-.1,2.1-.22,3.96-.42.19-.01.32-.07.51-.2.12-.07.28-.13.42-.13.26,0,.76.34,1.14.69.32.29.35.43.35.6,0,.16-.16.26-.31.34-.2.1-.29.19-.53.63-.57,1.09-1.33,2.17-2.29,3.23-1.1,1.22-2.83,2.61-4.81,3.4-.12.04-.23.09-.32.09s-.15-.06-.15-.15c0-.07.12-.13.21-.2,1.76-1.14,3.02-2.49,4.24-4.06.82-1.07,1.39-2.04,1.83-3.08.04-.1.1-.28.1-.31,0-.04-.03-.04-.1-.04-.06,0-.16.01-.23.03-1.57.15-2.73.34-4.19.59-.56.1-.75.18-.88.25-.16.09-.32.15-.47.15-.23,0-.41-.07-.81-.47-.42-.44-.57-.85-.57-1.07,0-.25.07-.41.15-.41.06,0,.09.03.22.15.42.4.61.54,1.19.54.19,0,.82-.06,1.33-.12ZM91.99.88c.54-.07,1.14-.18,1.79-.32.37-.09.51-.18.66-.23.18-.07.43-.13.57-.13.65,0,1.28.34,1.28.66,0,.19-.04.41-.29.48-.29.09-.66.13-.89.16-.62.09-2.2.26-3.36.4-.29.03-.53.04-.7.04-.53,0-.82-.2-1.26-.82-.18-.24-.2-.42-.2-.63,0-.1.03-.16.09-.16.04,0,.09.04.16.1.56.42.75.51,1.38.51.24,0,.51-.03.79-.06Z"/>
      <path class="cls-1" d="M108.54,7.1c.56.29,1.01.59,1.41.89.88.67,1.23,1.25,1.23,1.67,0,.45-.31.79-.67.79s-.65-.1-.91-.5c-.51-.76-1.03-1.55-1.7-2.18-.57-.53-.97-.82-1.47-1.13-1.1,1.17-2.33,2.11-3.59,2.87-.97.57-1.91.97-2.51,1.16-.12.04-.22.07-.32.07-.07,0-.15-.03-.15-.13,0-.06.04-.13.1-.16,1.73-.94,2.96-1.89,4.59-3.55,1.16-1.19,1.91-2.21,2.98-3.89.06-.09.09-.15.09-.18,0-.04-.04-.06-.19-.04-1.03.12-2.35.34-3.5.59-.38.09-.56.16-.67.24-.13.07-.25.16-.51.16-.28,0-.57-.18-.98-.69-.28-.35-.31-.57-.31-.94,0-.28.1-.38.19-.38.04,0,.1.06.2.18.41.45.57.56,1.01.56.18,0,.54-.03,1.11-.09,1.2-.13,2.18-.26,3.23-.41.28-.04.45-.1.59-.22.13-.12.23-.16.42-.16.28,0,.47.13.78.4.44.38.62.62.62.82,0,.15-.04.29-.48.44-.13.04-.22.16-.35.35-.63.92-1.17,1.71-1.99,2.64.69.28,1.28.56,1.77.82Z"/>
      <path class="cls-1" d="M119.68,5.06c.88.37,1.36.82,1.36,1.48,0,.47-.34.78-.63.78-.26,0-.53-.09-.81-.43-.35-.41-.69-.78-1.05-1.07-.47-.38-.97-.67-1.52-.84v2.55c0,.62.03,1.96.06,3.55,0,.56-.25.69-.54.69-.21,0-.47-.07-.62-.34-.23-.4-.32-.88-.32-1.16,0-.07.03-.34.07-.42.04-.09.07-.16.07-.25.01-.19.04-.6.06-3.28.01-1.39,0-2.64,0-4.02,0-.38,0-1.04-.06-1.25-.04-.13-.16-.25-.31-.34-.22-.13-.4-.21-.51-.24-.1-.03-.15-.07-.15-.13,0-.09.1-.16.19-.22.12-.07.28-.13.41-.13.34,0,.78.07,1.48.4.4.18.59.41.59.69,0,.18-.09.32-.25.47-.06.06-.09.15-.1.29-.04.41-.07,1.28-.07,2.64.88.04,1.83.23,2.65.57Z"/>
    </g>
  </g>
</svg>