<?xml version="1.0" encoding="UTF-8"?>
<svg id="_レイヤー_2" data-name="レイヤー 2" xmlns="http://www.w3.org/2000/svg" viewBox="0 0 246.39 48.68">
  <defs>
    <style>
      .cls-1 {
        fill: #637684;
      }
    </style>
  </defs>
  <g id="_レイヤー_1-2" data-name="レイヤー 1">
    <g>
      <path class="cls-1" d="M43.38,22.12c.35.29.68.59,1,.9-.02.07-.04.14-.07.2-.29.81-.63,1.59-1.04,2.35-.67,1.28-1.51,2.5-2.49,3.61-.73.83-1.54,1.6-2.44,2.31-.78.62-1.63,1.18-2.54,1.69v-.54c1.24-.81,2.37-1.77,3.37-2.87,1.58-1.75,2.83-3.83,3.7-6.14.19-.5.35-1,.5-1.52ZM41.05,30.59c-1.49,1.58-3.25,2.88-5.24,3.89v.46c1.36-.59,2.61-1.29,3.73-2.09,1-.7,1.91-1.48,2.72-2.31,1.12-1.14,2.06-2.38,2.83-3.7.37-.64.7-1.3.99-1.98-.29-.36-.6-.71-.91-1.05-.07.19-.13.37-.2.56-.91,2.32-2.23,4.44-3.91,6.22ZM46.76,25.76c-.94,2.08-2.24,4-3.84,5.65-1.96,2.01-4.36,3.58-7.1,4.69v.45c.08-.03.16-.05.23-.08,3.11-1.11,5.66-2.69,7.69-4.57,1.6-1.49,2.87-3.16,3.82-4.93l-.18-.3c-.19-.31-.4-.62-.61-.92ZM35.97,28.77c.68-.71,1.31-1.48,1.87-2.31.72-1.06,1.33-2.2,1.82-3.42.28-.69.52-1.41.72-2.15.07-.26.13-.51.19-.77-.37-.22-.75-.44-1.14-.65-.19.93-.43,1.83-.72,2.7-.7,2.06-1.69,3.92-2.91,5.5v1.25c.05-.05.11-.1.16-.15ZM37.16,30.13c.79-.71,1.51-1.48,2.15-2.31.85-1.09,1.57-2.27,2.15-3.52.34-.73.63-1.48.88-2.25.06-.2.12-.41.18-.61-.35-.27-.71-.52-1.08-.77-.18.76-.39,1.51-.65,2.23-.81,2.28-1.99,4.34-3.48,6.05-.47.54-.98,1.05-1.51,1.52v.75c.47-.35.92-.71,1.35-1.09ZM34.48,19.43c-.94-1.99-6.51-3.31-10.14-3.31s-9.2,1.32-10.14,3.31c2.38-1.09,5.62-1.71,10.14-1.71s7.76.62,10.14,1.71ZM24.34,19.37c-3.63,0-9.2,1.32-10.14,3.31,2.38-1.09,5.62-1.71,10.14-1.71s7.76.62,10.14,1.71c-.94-1.99-6.51-3.31-10.14-3.31ZM24.34,22.62c-3.63,0-9.2,1.32-10.14,3.31,2.38-1.09,5.62-1.71,10.14-1.71s7.76.62,10.14,1.71c-.94-1.99-6.51-3.31-10.14-3.31ZM24.34,25.87c-3.63,0-9.2,1.32-10.14,3.31,2.38-1.09,5.62-1.71,10.14-1.71s7.76.62,10.14,1.71c-.94-1.99-6.51-3.31-10.14-3.31ZM24.34,29.12c-3.63,0-9.2,1.32-10.14,3.31,2.38-1.09,5.62-1.71,10.14-1.71s7.76.62,10.14,1.71c-.94-1.99-6.51-3.31-10.14-3.31ZM24.34,32.37c-3.63,0-9.2,1.32-10.14,3.31,2.38-1.09,5.62-1.71,10.14-1.71s7.76.62,10.14,1.71c-.94-1.99-6.51-3.31-10.14-3.31ZM24.34,35.62c-3.63,0-9.2,1.32-10.14,3.31,2.38-1.09,5.62-1.71,10.14-1.71s7.76.62,10.14,1.71c-.94-1.99-6.51-3.31-10.14-3.31ZM24.34,38.87c-3.63,0-9.2,1.32-10.14,3.31,2.38-1.09,5.62-1.71,10.14-1.71s7.76.62,10.14,1.71c-.94-1.99-6.51-3.31-10.14-3.31ZM24.34,42.12c-3.63,0-9.2,1.32-10.14,3.31,2.38-1.09,5.62-1.71,10.14-1.71s7.76.62,10.14,1.71c-.94-1.99-6.51-3.31-10.14-3.31ZM24.34,45.37c-3.63,0-9.2,1.32-10.14,3.31,2.38-1.09,5.62-1.71,10.14-1.71s7.76.62,10.14,1.71c-.94-1.99-6.51-3.31-10.14-3.31ZM48.68,22.54c-3.31-7.79-12.54-12.96-24.34-12.96S3.31,14.75,0,22.54c1.16-1.87,2.66-3.58,4.48-5.08,4.98-4.11,11.85-6.28,19.86-6.28s14.88,2.17,19.86,6.28c1.82,1.5,3.32,3.22,4.48,5.08ZM48.68,25.76c-3.31-7.79-12.54-12.96-24.34-12.96S3.31,17.97,0,25.76c1.16-1.87,2.66-3.58,4.48-5.08,4.98-4.11,11.85-6.28,19.86-6.28s14.88,2.17,19.86,6.28c1.82,1.5,3.32,3.21,4.48,5.08ZM0,16.16c1.16-1.87,2.66-3.58,4.47-5.08,4.98-4.11,11.85-6.28,19.86-6.28s14.88,2.17,19.86,6.28c1.82,1.5,3.32,3.22,4.48,5.08-3.31-7.79-12.54-12.96-24.34-12.96S3.31,8.37,0,16.16ZM0,19.35c1.16-1.87,2.66-3.58,4.48-5.08,4.98-4.11,11.85-6.28,19.86-6.28s14.88,2.17,19.86,6.28c1.82,1.5,3.32,3.22,4.48,5.08-3.31-7.79-12.54-12.96-24.34-12.96S3.31,11.56,0,19.35ZM0,12.96c1.16-1.87,2.66-3.58,4.48-5.08C9.46,3.77,16.33,1.6,24.34,1.6s14.88,2.17,19.86,6.28c1.82,1.5,3.32,3.22,4.48,5.08C45.37,5.17,36.14,0,24.34,0S3.31,5.17,0,12.96Z"/>
      <path class="cls-1" d="M74.72,26.09v6.78c0,2.25.8,2.96,3.12,2.96v1.06h-11.51v-1.06c2.31,0,3.12-.71,3.12-2.96v-15.49c0-2.25-.8-2.96-3.12-2.96v-1.06h11.57c7.2,0,9.93,3.02,9.93,6.2,0,5.91-5.75,6.52-10.35,6.52h-2.76ZM74.72,24.84h1.9c3.82,0,5.62-1.41,5.62-5.21,0-3.5-1.9-5.01-4.92-5.01-2.6,0-2.6.96-2.6,3.18v7.04ZM93.55,24.31h7.52v3.05h-7.52v-3.05ZM128.39,13.36l1.74,6.43-1.19.32c-1.54-2.41-4.4-5.43-7.49-5.5v18.26c0,2.25.8,2.96,3.12,2.96v1.06h-11.51v-1.06c2.31,0,3.12-.71,3.12-2.96V14.61c-3.21.39-5.72,2.89-7.42,5.5l-1.19-.32,1.57-6.43h19.25ZM157.22,31.46c1.19,2.19,2.28,4.18,5.05,4.37v1.06h-7.94c-.55-.84-.93-1.8-1.38-2.7l-1.9-4.02c-1.93-4.15-3.18-4.5-4.53-4.5v7.2c0,2.25.8,2.96,3.12,2.96v1.06h-11.51v-1.06c2.31,0,3.12-.71,3.12-2.96v-15.49c0-2.25-.8-2.96-3.12-2.96v-1.06h13.82c4.76,0,7.68,2.57,7.68,5.98s-3.12,5.21-6.2,5.79c1,.67,1.51,1.8,2.06,2.86l1.74,3.47ZM147.13,24.16c5.3,0,6.91-1.74,6.91-5.14s-1.86-4.4-5.3-4.4c-2.12,0-2.22.8-2.22,2.64v6.91h.61ZM175.9,28.69c-.1,5.82,1.77,7.52,5.24,7.52,4.66,0,6.11-2.86,6.11-7.55v-11.28c0-2.25-.8-2.96-3.12-2.96v-1.06h7.91v1.06c-2.31,0-3.12.71-3.12,2.96v11.54c0,5.59-2.44,8.55-8.71,8.55s-9.58-2.89-9.58-7.87v-12.21c0-2.25-.8-2.96-3.12-2.96v-1.06h11.51v1.06c-2.31,0-3.12.71-3.12,2.96v11.31ZM215.63,19.5l-1.22.42c-1.57-2.57-4.79-5.88-8.04-5.88-2.22,0-4.02,1.19-4.02,3.5,0,2.64,2.76,3.34,4.82,3.99l1.9.61c3.95,1.29,7.81,3.12,7.81,7.87,0,4.4-3.66,7.46-7.87,7.46-1.38,0-2.73-.29-4.05-.71-.61-.19-1-.35-1.64-.35-.55,0-.84.06-2.86,1.03l-2.09-7.42,1.25-.42c1.9,3.05,5.01,6.62,8.9,6.62,2.31,0,4.69-1.64,4.69-4.11,0-2.64-2.57-3.44-4.63-4.08-4.27-1.38-9.64-2.99-9.64-8.45,0-4.08,3.25-6.78,7.2-6.78,1.32,0,2.31.22,3.54.64.45.16.87.32,1.35.32.8,0,1.9-.64,2.47-1.19l2.12,6.94ZM244.65,13.36l1.74,6.43-1.19.32c-1.54-2.41-4.4-5.43-7.49-5.5v18.26c0,2.25.8,2.96,3.12,2.96v1.06h-11.51v-1.06c2.31,0,3.12-.71,3.12-2.96V14.61c-3.21.39-5.72,2.89-7.42,5.5l-1.19-.32,1.57-6.43h19.25Z"/>
    </g>
  </g>
</svg>