<?xml version="1.0" encoding="UTF-8"?>
<svg id="_レイヤー_2" data-name="レイヤー 2" xmlns="http://www.w3.org/2000/svg" viewBox="0 0 180.06 24.91">
  <defs>
    <style>
      .cls-1 {
        fill: #637684;
      }
    </style>
  </defs>
  <g id="_レイヤー_1-2" data-name="レイヤー 1">
    <path class="cls-1" d="M8.39,13.53v6.78c0,2.25.8,2.96,3.12,2.96v1.06H0v-1.06c2.31,0,3.12-.71,3.12-2.96V4.82c0-2.25-.8-2.96-3.12-2.96V.8h11.57c7.2,0,9.93,3.02,9.93,6.2,0,5.91-5.75,6.52-10.35,6.52h-2.76ZM8.39,12.28h1.9c3.82,0,5.62-1.41,5.62-5.21,0-3.5-1.9-5.01-4.92-5.01-2.6,0-2.6.96-2.6,3.18v7.04ZM27.22,11.75h7.52v3.05h-7.52v-3.05ZM62.07.8l1.74,6.43-1.19.32c-1.54-2.41-4.4-5.43-7.49-5.5v18.26c0,2.25.8,2.96,3.12,2.96v1.06h-11.51v-1.06c2.31,0,3.12-.71,3.12-2.96V2.06c-3.21.39-5.72,2.89-7.42,5.5l-1.19-.32,1.57-6.43h19.25ZM90.9,18.9c1.19,2.19,2.28,4.18,5.05,4.37v1.06h-7.94c-.55-.84-.93-1.8-1.38-2.7l-1.9-4.02c-1.93-4.15-3.18-4.5-4.53-4.5v7.2c0,2.25.8,2.96,3.12,2.96v1.06h-11.51v-1.06c2.31,0,3.12-.71,3.12-2.96V4.82c0-2.25-.8-2.96-3.12-2.96V.8h13.82c4.76,0,7.68,2.57,7.68,5.98s-3.12,5.21-6.2,5.79c1,.67,1.51,1.8,2.06,2.86l1.74,3.47ZM80.81,11.6c5.3,0,6.91-1.74,6.91-5.14s-1.86-4.4-5.3-4.4c-2.12,0-2.22.8-2.22,2.64v6.91h.61ZM109.57,16.13c-.1,5.82,1.77,7.52,5.24,7.52,4.66,0,6.11-2.86,6.11-7.55V4.82c0-2.25-.8-2.96-3.12-2.96V.8h7.91v1.06c-2.31,0-3.12.71-3.12,2.96v11.54c0,5.59-2.44,8.55-8.71,8.55s-9.58-2.89-9.58-7.87V4.82c0-2.25-.8-2.96-3.12-2.96V.8h11.51v1.06c-2.31,0-3.12.71-3.12,2.96v11.31ZM149.3,6.94l-1.22.42c-1.57-2.57-4.79-5.88-8.04-5.88-2.22,0-4.02,1.19-4.02,3.5,0,2.64,2.76,3.34,4.82,3.99l1.9.61c3.95,1.29,7.81,3.12,7.81,7.87,0,4.4-3.66,7.46-7.87,7.46-1.38,0-2.73-.29-4.05-.71-.61-.19-1-.35-1.64-.35-.55,0-.84.06-2.86,1.03l-2.09-7.42,1.25-.42c1.9,3.05,5.01,6.62,8.9,6.62,2.31,0,4.69-1.64,4.69-4.11,0-2.64-2.57-3.44-4.63-4.08-4.27-1.38-9.64-2.99-9.64-8.45,0-4.08,3.25-6.78,7.2-6.78,1.32,0,2.31.22,3.54.64.45.16.87.32,1.35.32.8,0,1.9-.64,2.47-1.19l2.12,6.94ZM178.32.8l1.74,6.43-1.19.32c-1.54-2.41-4.4-5.43-7.49-5.5v18.26c0,2.25.8,2.96,3.12,2.96v1.06h-11.51v-1.06c2.31,0,3.12-.71,3.12-2.96V2.06c-3.21.39-5.72,2.89-7.42,5.5l-1.19-.32,1.57-6.43h19.25Z"/>
  </g>
</svg>