<?xml version="1.0" encoding="UTF-8"?>
<svg id="_レイヤー_2" data-name="レイヤー 2" xmlns="http://www.w3.org/2000/svg" viewBox="0 0 407.7 96.07">
  <defs>
    <style>
      .cls-1 {
        fill: #637684;
      }

      .cls-2 {
        fill: #fff;
      }
    </style>
  </defs>
  <g id="_レイヤー_1-2" data-name="レイヤー 1">
    <g>
      <rect class="cls-1" width="407.7" height="96.07"/>
      <path class="cls-2" d="M82.9,44.27c.5.42.99.86,1.46,1.3-.03.1-.06.2-.1.29-.42,1.17-.92,2.31-1.5,3.42-.98,1.87-2.19,3.62-3.61,5.24-1.06,1.2-2.24,2.32-3.53,3.35-1.14.9-2.37,1.72-3.68,2.46v-.79c1.8-1.18,3.45-2.57,4.9-4.17,2.3-2.53,4.11-5.57,5.36-8.91.27-.72.51-1.46.72-2.2ZM79.52,56.58c-2.16,2.29-4.72,4.18-7.6,5.64v.66c1.97-.86,3.78-1.88,5.41-3.03,1.45-1.02,2.77-2.15,3.95-3.35,1.62-1.66,2.99-3.46,4.1-5.38.54-.93,1.02-1.89,1.44-2.87-.42-.52-.86-1.03-1.33-1.53-.1.27-.19.54-.29.81-1.32,3.37-3.24,6.45-5.68,9.03ZM87.8,49.57c-1.37,3.02-3.24,5.81-5.57,8.21-2.85,2.91-6.32,5.19-10.31,6.81v.65c.11-.04.23-.07.34-.11,4.51-1.61,8.22-3.91,11.16-6.64,2.32-2.16,4.16-4.58,5.54-7.16l-.27-.43c-.28-.45-.58-.89-.89-1.33ZM72.14,53.93c.99-1.03,1.9-2.15,2.71-3.35,1.04-1.54,1.93-3.2,2.64-4.97.41-1.01.76-2.05,1.05-3.12.1-.37.19-.74.28-1.12-.54-.33-1.09-.64-1.65-.94-.27,1.35-.62,2.66-1.04,3.91-1.01,3-2.45,5.69-4.22,7.99v1.82c.07-.08.15-.15.23-.22ZM73.87,55.9c1.14-1.03,2.19-2.15,3.12-3.35,1.23-1.58,2.28-3.29,3.13-5.11.49-1.06.92-2.15,1.28-3.27.09-.29.18-.59.26-.89-.51-.39-1.03-.76-1.56-1.12-.26,1.11-.57,2.19-.94,3.23-1.18,3.31-2.89,6.29-5.05,8.78-.69.79-1.42,1.52-2.19,2.2v1.09c.68-.5,1.34-1.02,1.96-1.58ZM69.98,40.37c-1.37-2.89-9.45-4.8-14.72-4.8s-13.35,1.91-14.72,4.8c3.46-1.58,8.16-2.49,14.72-2.49s11.26.91,14.72,2.49ZM55.26,40.29c-5.27,0-13.35,1.91-14.72,4.8,3.46-1.58,8.16-2.49,14.72-2.49s11.26.91,14.72,2.49c-1.37-2.89-9.45-4.8-14.72-4.8ZM55.26,45.01c-5.27,0-13.35,1.91-14.72,4.8,3.46-1.58,8.16-2.48,14.72-2.48s11.26.91,14.72,2.48c-1.37-2.89-9.45-4.8-14.72-4.8ZM55.26,49.73c-5.27,0-13.35,1.91-14.72,4.8,3.46-1.58,8.16-2.49,14.72-2.49s11.26.91,14.72,2.49c-1.37-2.89-9.45-4.8-14.72-4.8ZM55.26,54.44c-5.27,0-13.35,1.91-14.72,4.8,3.46-1.58,8.16-2.49,14.72-2.49s11.26.91,14.72,2.49c-1.37-2.89-9.45-4.8-14.72-4.8ZM55.26,59.16c-5.27,0-13.35,1.91-14.72,4.8,3.46-1.58,8.16-2.49,14.72-2.49s11.26.91,14.72,2.49c-1.37-2.89-9.45-4.8-14.72-4.8ZM55.26,63.88c-5.27,0-13.35,1.91-14.72,4.8,3.46-1.58,8.16-2.49,14.72-2.49s11.26.91,14.72,2.49c-1.37-2.89-9.45-4.8-14.72-4.8ZM55.26,68.6c-5.27,0-13.35,1.91-14.72,4.8,3.46-1.58,8.16-2.49,14.72-2.49s11.26.91,14.72,2.49c-1.37-2.89-9.45-4.8-14.72-4.8ZM55.26,73.31c-5.27,0-13.35,1.91-14.72,4.8,3.46-1.58,8.16-2.49,14.72-2.49s11.26.91,14.72,2.49c-1.37-2.89-9.45-4.8-14.72-4.8ZM55.26,78.03c-5.27,0-13.35,1.91-14.72,4.8,3.46-1.58,8.16-2.49,14.72-2.49s11.26.91,14.72,2.49c-1.37-2.89-9.45-4.8-14.72-4.8ZM90.59,44.89c-4.81-11.3-18.2-18.81-35.33-18.81s-30.52,7.51-35.33,18.81c1.68-2.71,3.86-5.2,6.5-7.38,7.23-5.96,17.2-9.12,28.83-9.12s21.6,3.15,28.83,9.12c2.64,2.18,4.82,4.67,6.5,7.38ZM90.59,49.56c-4.81-11.3-18.2-18.81-35.33-18.81s-30.52,7.51-35.33,18.81c1.68-2.71,3.86-5.2,6.5-7.38,7.23-5.97,17.2-9.12,28.83-9.12s21.6,3.15,28.83,9.12c2.64,2.18,4.82,4.67,6.5,7.38ZM19.94,35.63c1.68-2.71,3.85-5.2,6.49-7.38,7.23-5.97,17.2-9.12,28.83-9.12s21.6,3.15,28.83,9.12c2.64,2.18,4.82,4.67,6.5,7.38-4.81-11.3-18.2-18.81-35.33-18.81s-30.52,7.51-35.33,18.81ZM19.93,40.26c1.68-2.71,3.85-5.2,6.5-7.38,7.23-5.97,17.2-9.12,28.83-9.12s21.6,3.15,28.83,9.12c2.64,2.18,4.82,4.67,6.5,7.38-4.81-11.31-18.2-18.82-35.33-18.82s-30.52,7.51-35.33,18.82ZM19.93,30.99c1.68-2.71,3.85-5.2,6.5-7.38,7.23-5.97,17.2-9.12,28.83-9.12s21.6,3.15,28.83,9.12c2.64,2.18,4.82,4.67,6.5,7.38-4.81-11.31-18.2-18.82-35.33-18.82s-30.52,7.51-35.33,18.82Z"/>
      <g>
        <path class="cls-2" d="M131.05,50.09v9.94c0,3.3,1.18,4.33,4.57,4.33v1.55h-16.87v-1.55c3.39,0,4.57-1.04,4.57-4.33v-22.71c0-3.3-1.18-4.33-4.57-4.33v-1.55h16.96c10.55,0,14.56,4.43,14.56,9.09,0,8.67-8.43,9.56-15.17,9.56h-4.05ZM131.05,48.26h2.78c5.61,0,8.25-2.07,8.25-7.63,0-5.14-2.78-7.35-7.21-7.35-3.82,0-3.82,1.41-3.82,4.66v10.32Z"/>
        <path class="cls-2" d="M158.67,47.49h11.03v4.48h-11.03v-4.48Z"/>
        <path class="cls-2" d="M209.74,31.44l2.54,9.42-1.74.47c-2.26-3.53-6.45-7.96-10.98-8.06v26.76c0,3.3,1.18,4.33,4.57,4.33v1.55h-16.87v-1.55c3.39,0,4.57-1.04,4.57-4.33v-26.76c-4.71.57-8.39,4.24-10.88,8.06l-1.74-.47,2.31-9.42h28.22Z"/>
        <path class="cls-2" d="M252.01,57.96c1.74,3.2,3.35,6.13,7.4,6.41v1.55h-11.64c-.8-1.22-1.37-2.64-2.03-3.96l-2.78-5.89c-2.83-6.08-4.66-6.6-6.64-6.6v10.55c0,3.3,1.18,4.33,4.57,4.33v1.55h-16.87v-1.55c3.39,0,4.57-1.04,4.57-4.33v-22.71c0-3.3-1.18-4.33-4.57-4.33v-1.55h20.26c6.97,0,11.26,3.77,11.26,8.76s-4.57,7.63-9.09,8.48c1.46.99,2.21,2.64,3.02,4.19l2.54,5.09ZM237.21,47.27c7.77,0,10.13-2.54,10.13-7.54s-2.73-6.45-7.77-6.45c-3.11,0-3.25,1.18-3.25,3.86v10.13h.9Z"/>
        <path class="cls-2" d="M279.38,53.91c-.14,8.53,2.59,11.03,7.68,11.03,6.83,0,8.95-4.19,8.95-11.07v-16.54c0-3.3-1.18-4.33-4.57-4.33v-1.55h11.59v1.55c-3.39,0-4.57,1.04-4.57,4.33v16.91c0,8.2-3.58,12.53-12.77,12.53s-14.04-4.24-14.04-11.54v-17.9c0-3.3-1.18-4.33-4.57-4.33v-1.55h16.87v1.55c-3.39,0-4.57,1.04-4.57,4.33v16.58Z"/>
        <path class="cls-2" d="M337.62,40.44l-1.79.61c-2.31-3.77-7.02-8.62-11.78-8.62-3.25,0-5.89,1.74-5.89,5.14,0,3.86,4.05,4.9,7.07,5.84l2.78.9c5.8,1.88,11.45,4.57,11.45,11.54,0,6.45-5.37,10.93-11.54,10.93-2.03,0-4-.42-5.94-1.04-.9-.28-1.46-.52-2.4-.52-.8,0-1.22.09-4.19,1.51l-3.06-10.88,1.84-.61c2.78,4.48,7.35,9.71,13.05,9.71,3.39,0,6.88-2.4,6.88-6.03,0-3.86-3.77-5.04-6.78-5.98-6.27-2.03-14.14-4.38-14.14-12.39,0-5.98,4.76-9.94,10.55-9.94,1.93,0,3.39.33,5.18.94.66.24,1.27.47,1.98.47,1.18,0,2.78-.94,3.63-1.74l3.11,10.18Z"/>
        <path class="cls-2" d="M380.17,31.44l2.54,9.42-1.74.47c-2.26-3.53-6.45-7.96-10.98-8.06v26.76c0,3.3,1.18,4.33,4.57,4.33v1.55h-16.87v-1.55c3.39,0,4.57-1.04,4.57-4.33v-26.76c-4.71.57-8.39,4.24-10.88,8.06l-1.74-.47,2.31-9.42h28.22Z"/>
      </g>
    </g>
  </g>
</svg>