<?xml version="1.0" encoding="UTF-8"?>
<svg id="_レイヤー_2" data-name="レイヤー 2" xmlns="http://www.w3.org/2000/svg" viewBox="0 0 145.11 188.87">
  <defs>
    <style>
      .cls-1 {
        fill: #637684;
      }
    </style>
  </defs>
  <g id="_レイヤー_1-2" data-name="レイヤー 1">
    <g>
      <path class="cls-1" d="M129.31,65.92c1.03.87,2.03,1.76,2.99,2.68-.07.2-.13.4-.2.6-.86,2.4-1.89,4.75-3.09,7.02-2.01,3.83-4.49,7.44-7.42,10.77-2.18,2.46-4.6,4.77-7.26,6.88-2.34,1.85-4.87,3.53-7.57,5.05v-1.61c3.7-2.43,7.08-5.28,10.05-8.56,4.72-5.21,8.45-11.43,11.01-18.29.55-1.48,1.04-2.99,1.48-4.53ZM122.37,91.2c-4.44,4.71-9.7,8.59-15.61,11.59v1.36c4.05-1.77,7.77-3.86,11.11-6.22,2.98-2.1,5.68-4.41,8.11-6.88,3.34-3.4,6.15-7.11,8.42-11.04,1.11-1.92,2.1-3.88,2.96-5.89-.86-1.07-1.77-2.11-2.72-3.13-.2.55-.39,1.11-.6,1.66-2.71,6.91-6.65,13.24-11.66,18.55ZM139.38,76.8c-2.8,6.21-6.66,11.94-11.44,16.85-5.85,5.98-12.99,10.66-21.17,14v1.33c.23-.08.47-.15.69-.23,9.27-3.31,16.89-8.03,22.92-13.63,4.77-4.43,8.54-9.41,11.38-14.7l-.55-.89c-.58-.93-1.19-1.83-1.83-2.73ZM107.23,85.75c2.04-2.12,3.9-4.42,5.57-6.88,2.14-3.16,3.96-6.57,5.42-10.21.84-2.07,1.55-4.2,2.16-6.4.21-.76.4-1.53.58-2.3-1.11-.67-2.23-1.32-3.39-1.93-.56,2.78-1.27,5.46-2.14,8.04-2.08,6.15-5.03,11.68-8.66,16.41v3.73c.15-.16.32-.3.47-.46ZM110.78,89.81c2.35-2.12,4.49-4.42,6.41-6.88,2.53-3.24,4.68-6.76,6.42-10.49,1.01-2.17,1.89-4.41,2.63-6.71.19-.6.37-1.21.54-1.82-1.04-.79-2.11-1.56-3.21-2.3-.54,2.27-1.18,4.5-1.94,6.64-2.42,6.8-5.94,12.92-10.37,18.03-1.41,1.62-2.91,3.12-4.5,4.53v2.24c1.39-1.03,2.74-2.1,4.02-3.25ZM102.79,57.91c-2.81-5.93-19.4-9.86-30.23-9.86s-27.42,3.93-30.23,9.86c7.11-3.24,16.76-5.11,30.23-5.11s23.12,1.86,30.23,5.11ZM72.56,57.74c-10.83,0-27.42,3.93-30.23,9.86,7.11-3.24,16.76-5.11,30.23-5.11s23.12,1.86,30.23,5.11c-2.81-5.93-19.4-9.86-30.23-9.86ZM72.56,67.43c-10.83,0-27.42,3.93-30.23,9.86,7.11-3.24,16.76-5.1,30.23-5.1s23.12,1.86,30.23,5.1c-2.81-5.93-19.4-9.86-30.23-9.86ZM72.56,77.12c-10.83,0-27.42,3.93-30.23,9.86,7.11-3.24,16.76-5.11,30.23-5.11s23.12,1.86,30.23,5.11c-2.81-5.93-19.4-9.86-30.23-9.86ZM72.56,86.81c-10.83,0-27.42,3.93-30.23,9.86,7.11-3.24,16.76-5.1,30.23-5.1s23.12,1.86,30.23,5.1c-2.81-5.93-19.4-9.86-30.23-9.86ZM72.56,96.5c-10.83,0-27.42,3.93-30.23,9.86,7.11-3.24,16.76-5.11,30.23-5.11s23.12,1.86,30.23,5.11c-2.81-5.93-19.4-9.86-30.23-9.86ZM72.56,106.19c-10.83,0-27.42,3.93-30.23,9.86,7.11-3.24,16.76-5.11,30.23-5.11s23.12,1.86,30.23,5.11c-2.81-5.93-19.4-9.86-30.23-9.86ZM72.56,115.87c-10.83,0-27.42,3.93-30.23,9.86,7.11-3.24,16.76-5.11,30.23-5.11s23.12,1.86,30.23,5.11c-2.81-5.93-19.4-9.86-30.23-9.86ZM72.56,125.56c-10.83,0-27.42,3.93-30.23,9.86,7.11-3.24,16.76-5.1,30.23-5.1s23.12,1.86,30.23,5.1c-2.81-5.93-19.4-9.86-30.23-9.86ZM72.56,135.25c-10.83,0-27.42,3.93-30.23,9.86,7.11-3.24,16.76-5.11,30.23-5.11s23.12,1.86,30.23,5.11c-2.81-5.93-19.4-9.86-30.23-9.86ZM145.11,67.2c-9.88-23.22-37.38-38.64-72.56-38.64S9.88,43.98,0,67.2c3.45-5.57,7.92-10.68,13.34-15.15,14.86-12.25,35.33-18.73,59.21-18.73s44.36,6.48,59.21,18.73c5.43,4.48,9.89,9.58,13.34,15.15ZM145.11,76.78c-9.88-23.22-37.38-38.64-72.56-38.64S9.88,53.57,0,76.78c3.45-5.57,7.92-10.68,13.34-15.15,14.86-12.25,35.33-18.73,59.21-18.73s44.36,6.48,59.21,18.73c5.43,4.47,9.89,9.58,13.34,15.15ZM0,48.16c3.45-5.57,7.91-10.68,13.34-15.15,14.86-12.25,35.33-18.73,59.21-18.73s44.36,6.48,59.21,18.73c5.43,4.47,9.89,9.58,13.34,15.15-9.88-23.22-37.38-38.64-72.55-38.64S9.88,24.94,0,48.16ZM0,57.68c3.45-5.57,7.92-10.68,13.34-15.15,14.86-12.25,35.33-18.73,59.21-18.73s44.36,6.48,59.21,18.73c5.43,4.47,9.89,9.59,13.34,15.15-9.87-23.22-37.38-38.64-72.56-38.64S9.88,34.46,0,57.68ZM0,38.64c3.45-5.57,7.92-10.68,13.34-15.15C28.2,11.24,48.67,4.76,72.56,4.76s44.36,6.48,59.21,18.73c5.43,4.48,9.89,9.59,13.34,15.15C135.24,15.42,107.73,0,72.56,0S9.88,15.42,0,38.64Z"/>
      <g>
        <path class="cls-1" d="M7.11,179.73v5.45c0,1.81.65,2.38,2.5,2.38v.85H.37v-.85c1.86,0,2.5-.57,2.5-2.38v-12.44c0-1.81-.65-2.38-2.5-2.38v-.85h9.29c5.78,0,7.98,2.43,7.98,4.98,0,4.75-4.62,5.24-8.31,5.24h-2.22ZM7.11,178.73h1.52c3.07,0,4.52-1.14,4.52-4.18,0-2.81-1.52-4.03-3.95-4.03-2.09,0-2.09.77-2.09,2.56v5.65Z"/>
        <path class="cls-1" d="M22.24,178.3h6.04v2.45h-6.04v-2.45Z"/>
        <path class="cls-1" d="M50.23,169.51l1.39,5.16-.96.26c-1.24-1.94-3.54-4.36-6.02-4.41v14.66c0,1.81.65,2.38,2.5,2.38v.85h-9.24v-.85c1.86,0,2.5-.57,2.5-2.38v-14.66c-2.58.31-4.6,2.32-5.96,4.41l-.96-.26,1.27-5.16h15.47Z"/>
        <path class="cls-1" d="M73.39,184.04c.96,1.76,1.83,3.36,4.05,3.51v.85h-6.38c-.44-.67-.75-1.45-1.11-2.17l-1.52-3.23c-1.55-3.33-2.56-3.61-3.64-3.61v5.78c0,1.81.65,2.38,2.5,2.38v.85h-9.24v-.85c1.86,0,2.5-.57,2.5-2.38v-12.44c0-1.81-.65-2.38-2.5-2.38v-.85h11.1c3.82,0,6.17,2.07,6.17,4.8s-2.5,4.18-4.98,4.65c.8.54,1.21,1.45,1.65,2.3l1.39,2.79ZM65.28,178.18c4.26,0,5.55-1.39,5.55-4.13s-1.5-3.54-4.26-3.54c-1.7,0-1.78.65-1.78,2.12v5.55h.49Z"/>
        <path class="cls-1" d="M88.39,181.82c-.08,4.67,1.42,6.04,4.21,6.04,3.74,0,4.91-2.3,4.91-6.07v-9.06c0-1.81-.65-2.38-2.5-2.38v-.85h6.35v.85c-1.86,0-2.5.57-2.5,2.38v9.27c0,4.49-1.96,6.87-7,6.87s-7.69-2.32-7.69-6.33v-9.81c0-1.81-.65-2.38-2.5-2.38v-.85h9.24v.85c-1.86,0-2.5.57-2.5,2.38v9.09Z"/>
        <path class="cls-1" d="M120.31,174.44l-.98.34c-1.27-2.07-3.85-4.72-6.45-4.72-1.78,0-3.23.96-3.23,2.81,0,2.12,2.22,2.69,3.87,3.2l1.52.49c3.18,1.03,6.27,2.5,6.27,6.33,0,3.54-2.94,5.99-6.33,5.99-1.11,0-2.19-.23-3.25-.57-.49-.15-.8-.28-1.32-.28-.44,0-.67.05-2.3.83l-1.68-5.96,1.01-.34c1.52,2.45,4.03,5.32,7.15,5.32,1.86,0,3.77-1.32,3.77-3.3,0-2.12-2.07-2.76-3.72-3.28-3.43-1.11-7.75-2.4-7.75-6.79,0-3.28,2.61-5.45,5.78-5.45,1.06,0,1.86.18,2.84.52.36.13.7.26,1.08.26.65,0,1.52-.52,1.99-.96l1.7,5.58Z"/>
        <path class="cls-1" d="M143.62,169.51l1.39,5.16-.96.26c-1.24-1.94-3.54-4.36-6.02-4.41v14.66c0,1.81.65,2.38,2.5,2.38v.85h-9.24v-.85c1.86,0,2.5-.57,2.5-2.38v-14.66c-2.58.31-4.6,2.32-5.96,4.41l-.96-.26,1.27-5.16h15.47Z"/>
      </g>
    </g>
  </g>
</svg>