<?xml version="1.0" encoding="UTF-8"?>
<svg id="_レイヤー_2" data-name="レイヤー 2" xmlns="http://www.w3.org/2000/svg" viewBox="0 0 48.68 48.68">
  <defs>
    <style>
      .cls-1 {
        fill: #637684;
      }
    </style>
  </defs>
  <g id="_レイヤー_1-2" data-name="レイヤー 1">
    <path class="cls-1" d="M43.38,22.12c.35.29.68.59,1,.9-.02.07-.04.14-.07.2-.29.81-.63,1.59-1.04,2.35-.67,1.28-1.51,2.5-2.49,3.61-.73.83-1.54,1.6-2.44,2.31-.78.62-1.63,1.18-2.54,1.69v-.54c1.24-.81,2.37-1.77,3.37-2.87,1.58-1.75,2.83-3.83,3.7-6.14.19-.5.35-1,.5-1.52ZM41.05,30.59c-1.49,1.58-3.25,2.88-5.24,3.89v.46c1.36-.59,2.61-1.29,3.73-2.09,1-.7,1.91-1.48,2.72-2.31,1.12-1.14,2.06-2.38,2.83-3.7.37-.64.7-1.3.99-1.98-.29-.36-.6-.71-.91-1.05-.07.19-.13.37-.2.56-.91,2.32-2.23,4.44-3.91,6.22ZM46.76,25.76c-.94,2.08-2.24,4-3.84,5.65-1.96,2.01-4.36,3.58-7.1,4.69v.45c.08-.03.16-.05.23-.08,3.11-1.11,5.66-2.69,7.69-4.57,1.6-1.49,2.87-3.16,3.82-4.93l-.18-.3c-.19-.31-.4-.62-.61-.92ZM35.97,28.77c.68-.71,1.31-1.48,1.87-2.31.72-1.06,1.33-2.2,1.82-3.42.28-.69.52-1.41.72-2.15.07-.26.13-.51.19-.77-.37-.22-.75-.44-1.14-.65-.19.93-.43,1.83-.72,2.7-.7,2.06-1.69,3.92-2.91,5.5v1.25c.05-.05.11-.1.16-.15ZM37.16,30.13c.79-.71,1.51-1.48,2.15-2.31.85-1.09,1.57-2.27,2.15-3.52.34-.73.63-1.48.88-2.25.06-.2.12-.41.18-.61-.35-.27-.71-.52-1.08-.77-.18.76-.39,1.51-.65,2.23-.81,2.28-1.99,4.34-3.48,6.05-.47.54-.98,1.05-1.51,1.52v.75c.47-.35.92-.71,1.35-1.09ZM34.48,19.43c-.94-1.99-6.51-3.31-10.14-3.31s-9.2,1.32-10.14,3.31c2.38-1.09,5.62-1.71,10.14-1.71s7.76.62,10.14,1.71ZM24.34,19.37c-3.63,0-9.2,1.32-10.14,3.31,2.38-1.09,5.62-1.71,10.14-1.71s7.76.62,10.14,1.71c-.94-1.99-6.51-3.31-10.14-3.31ZM24.34,22.62c-3.63,0-9.2,1.32-10.14,3.31,2.38-1.09,5.62-1.71,10.14-1.71s7.76.62,10.14,1.71c-.94-1.99-6.51-3.31-10.14-3.31ZM24.34,25.87c-3.63,0-9.2,1.32-10.14,3.31,2.38-1.09,5.62-1.71,10.14-1.71s7.76.62,10.14,1.71c-.94-1.99-6.51-3.31-10.14-3.31ZM24.34,29.12c-3.63,0-9.2,1.32-10.14,3.31,2.38-1.09,5.62-1.71,10.14-1.71s7.76.62,10.14,1.71c-.94-1.99-6.51-3.31-10.14-3.31ZM24.34,32.37c-3.63,0-9.2,1.32-10.14,3.31,2.38-1.09,5.62-1.71,10.14-1.71s7.76.62,10.14,1.71c-.94-1.99-6.51-3.31-10.14-3.31ZM24.34,35.62c-3.63,0-9.2,1.32-10.14,3.31,2.38-1.09,5.62-1.71,10.14-1.71s7.76.62,10.14,1.71c-.94-1.99-6.51-3.31-10.14-3.31ZM24.34,38.87c-3.63,0-9.2,1.32-10.14,3.31,2.38-1.09,5.62-1.71,10.14-1.71s7.76.62,10.14,1.71c-.94-1.99-6.51-3.31-10.14-3.31ZM24.34,42.12c-3.63,0-9.2,1.32-10.14,3.31,2.38-1.09,5.62-1.71,10.14-1.71s7.76.62,10.14,1.71c-.94-1.99-6.51-3.31-10.14-3.31ZM24.34,45.37c-3.63,0-9.2,1.32-10.14,3.31,2.38-1.09,5.62-1.71,10.14-1.71s7.76.62,10.14,1.71c-.94-1.99-6.51-3.31-10.14-3.31ZM48.68,22.54c-3.31-7.79-12.54-12.96-24.34-12.96S3.31,14.75,0,22.54c1.16-1.87,2.66-3.58,4.48-5.08,4.98-4.11,11.85-6.28,19.86-6.28s14.88,2.17,19.86,6.28c1.82,1.5,3.32,3.22,4.48,5.08ZM48.68,25.76c-3.31-7.79-12.54-12.96-24.34-12.96S3.31,17.97,0,25.76c1.16-1.87,2.66-3.58,4.48-5.08,4.98-4.11,11.85-6.28,19.86-6.28s14.88,2.17,19.86,6.28c1.82,1.5,3.32,3.21,4.48,5.08ZM0,16.16c1.16-1.87,2.66-3.58,4.47-5.08,4.98-4.11,11.85-6.28,19.86-6.28s14.88,2.17,19.86,6.28c1.82,1.5,3.32,3.22,4.48,5.08-3.31-7.79-12.54-12.96-24.34-12.96S3.31,8.37,0,16.16ZM0,19.35c1.16-1.87,2.66-3.58,4.48-5.08,4.98-4.11,11.85-6.28,19.86-6.28s14.88,2.17,19.86,6.28c1.82,1.5,3.32,3.22,4.48,5.08-3.31-7.79-12.54-12.96-24.34-12.96S3.31,11.56,0,19.35ZM0,12.96c1.16-1.87,2.66-3.58,4.48-5.08C9.46,3.77,16.33,1.6,24.34,1.6s14.88,2.17,19.86,6.28c1.82,1.5,3.32,3.22,4.48,5.08C45.37,5.17,36.14,0,24.34,0S3.31,5.17,0,12.96Z"/>
  </g>
</svg>