<?xml version="1.0" encoding="UTF-8"?>
<svg id="_レイヤー_2" data-name="レイヤー 2" xmlns="http://www.w3.org/2000/svg" viewBox="0 0 147.95 177.54">
  <defs>
    <style>
      .cls-1 {
        fill: #637684;
      }

      .cls-2 {
        fill: #fff;
      }
    </style>
  </defs>
  <g id="_レイヤー_1-2" data-name="レイヤー 1">
    <g>
      <rect class="cls-1" width="147.95" height="177.54"/>
      <path class="cls-2" d="M113.64,69.31c.72.61,1.42,1.23,2.09,1.87-.05.14-.09.28-.14.42-.6,1.68-1.32,3.32-2.16,4.91-1.41,2.68-3.14,5.2-5.19,7.52-1.52,1.72-3.21,3.33-5.07,4.81-1.63,1.29-3.4,2.47-5.29,3.53v-1.13c2.59-1.7,4.95-3.69,7.03-5.98,3.3-3.64,5.91-7.99,7.7-12.78.39-1.03.73-2.09,1.03-3.16ZM108.79,86.97c-3.11,3.29-6.78,6-10.91,8.1v.95c2.83-1.24,5.43-2.69,7.77-4.34,2.08-1.47,3.97-3.08,5.67-4.81,2.33-2.38,4.3-4.97,5.89-7.72.78-1.34,1.46-2.71,2.07-4.12-.6-.75-1.24-1.48-1.9-2.19-.14.39-.27.78-.42,1.16-1.89,4.83-4.65,9.25-8.15,12.97ZM120.68,76.91c-1.96,4.34-4.66,8.34-8,11.78-4.09,4.18-9.08,7.45-14.8,9.78v.93c.16-.06.33-.1.48-.16,6.48-2.32,11.8-5.61,16.02-9.53,3.34-3.09,5.97-6.58,7.95-10.27l-.38-.62c-.4-.65-.83-1.28-1.28-1.91ZM98.21,83.16c1.43-1.48,2.73-3.09,3.89-4.81,1.49-2.21,2.77-4.59,3.79-7.13.59-1.44,1.09-2.94,1.51-4.47.15-.53.28-1.07.4-1.61-.77-.47-1.56-.92-2.37-1.35-.39,1.94-.89,3.82-1.5,5.62-1.45,4.3-3.51,8.17-6.05,11.47v2.61c.11-.11.22-.21.33-.32ZM100.69,86c1.64-1.48,3.14-3.09,4.48-4.81,1.77-2.27,3.27-4.72,4.49-7.33.71-1.52,1.32-3.08,1.83-4.69.13-.42.26-.85.38-1.27-.73-.55-1.48-1.09-2.24-1.61-.38,1.59-.82,3.14-1.36,4.64-1.69,4.76-4.15,9.03-7.25,12.6-.98,1.13-2.04,2.18-3.14,3.16v1.57c.97-.72,1.92-1.47,2.81-2.27ZM95.11,63.71c-1.97-4.15-13.56-6.89-21.13-6.89s-19.16,2.75-21.13,6.89c4.97-2.27,11.71-3.57,21.13-3.57s16.16,1.3,21.13,3.57ZM73.98,63.58c-7.57,0-19.16,2.75-21.13,6.89,4.97-2.27,11.71-3.57,21.13-3.57s16.16,1.3,21.13,3.57c-1.97-4.15-13.56-6.89-21.13-6.89ZM73.98,70.36c-7.57,0-19.16,2.75-21.13,6.89,4.97-2.27,11.71-3.57,21.13-3.57s16.16,1.3,21.13,3.57c-1.97-4.15-13.56-6.89-21.13-6.89ZM73.98,77.13c-7.57,0-19.16,2.75-21.13,6.89,4.97-2.27,11.71-3.57,21.13-3.57s16.16,1.3,21.13,3.57c-1.97-4.15-13.56-6.89-21.13-6.89ZM73.98,83.9c-7.57,0-19.16,2.75-21.13,6.89,4.97-2.27,11.71-3.57,21.13-3.57s16.16,1.3,21.13,3.57c-1.97-4.15-13.56-6.89-21.13-6.89ZM73.98,90.67c-7.57,0-19.16,2.75-21.13,6.89,4.97-2.27,11.71-3.57,21.13-3.57s16.16,1.3,21.13,3.57c-1.97-4.15-13.56-6.89-21.13-6.89ZM73.98,97.44c-7.57,0-19.16,2.75-21.13,6.89,4.97-2.27,11.71-3.57,21.13-3.57s16.16,1.3,21.13,3.57c-1.97-4.15-13.56-6.89-21.13-6.89ZM73.98,104.21c-7.57,0-19.16,2.75-21.13,6.89,4.97-2.27,11.71-3.57,21.13-3.57s16.16,1.3,21.13,3.57c-1.97-4.15-13.56-6.89-21.13-6.89ZM73.98,110.99c-7.57,0-19.16,2.75-21.13,6.89,4.97-2.27,11.71-3.57,21.13-3.57s16.16,1.3,21.13,3.57c-1.97-4.15-13.56-6.89-21.13-6.89ZM73.98,117.76c-7.57,0-19.16,2.75-21.13,6.89,4.97-2.27,11.71-3.57,21.13-3.57s16.16,1.3,21.13,3.57c-1.97-4.15-13.56-6.89-21.13-6.89ZM124.69,70.19c-6.9-16.23-26.13-27-50.71-27s-43.81,10.78-50.71,27c2.41-3.89,5.53-7.46,9.32-10.59,10.38-8.56,24.69-13.09,41.38-13.09s31,4.53,41.38,13.09c3.79,3.13,6.91,6.7,9.33,10.59ZM124.69,76.89c-6.9-16.23-26.13-27-50.71-27s-43.81,10.78-50.71,27c2.41-3.89,5.53-7.46,9.32-10.59,10.38-8.56,24.69-13.09,41.38-13.09s31,4.53,41.38,13.09c3.79,3.13,6.91,6.7,9.33,10.59ZM23.27,56.89c2.41-3.89,5.53-7.46,9.32-10.59,10.38-8.56,24.69-13.09,41.38-13.09s31,4.53,41.38,13.09c3.79,3.13,6.91,6.7,9.32,10.59-6.9-16.23-26.12-27-50.71-27s-43.81,10.78-50.71,27ZM23.27,63.55c2.41-3.89,5.53-7.46,9.32-10.59,10.38-8.56,24.69-13.09,41.38-13.09s31,4.53,41.38,13.09c3.79,3.13,6.91,6.7,9.33,10.59-6.9-16.23-26.12-27.01-50.71-27.01s-43.81,10.78-50.71,27.01ZM23.27,50.24c2.41-3.89,5.53-7.46,9.32-10.59,10.38-8.56,24.69-13.09,41.38-13.09s31,4.53,41.38,13.09c3.79,3.13,6.91,6.7,9.33,10.59-6.9-16.23-26.12-27.01-50.71-27.01s-43.81,10.78-50.71,27.01Z"/>
      <g>
        <path class="cls-2" d="M28.24,148.85v3.81c0,1.26.45,1.66,1.75,1.66v.6h-6.46v-.6c1.3,0,1.75-.4,1.75-1.66v-8.7c0-1.26-.45-1.66-1.75-1.66v-.6h6.5c4.04,0,5.58,1.7,5.58,3.48,0,3.32-3.23,3.66-5.81,3.66h-1.55ZM28.24,148.14h1.06c2.15,0,3.16-.79,3.16-2.92,0-1.97-1.06-2.81-2.76-2.81-1.46,0-1.46.54-1.46,1.79v3.95Z"/>
        <path class="cls-2" d="M38.81,147.85h4.22v1.71h-4.22v-1.71Z"/>
        <path class="cls-2" d="M58.37,141.7l.97,3.61-.67.18c-.87-1.35-2.47-3.05-4.2-3.09v10.25c0,1.26.45,1.66,1.75,1.66v.6h-6.46v-.6c1.3,0,1.75-.4,1.75-1.66v-10.25c-1.8.22-3.21,1.62-4.17,3.09l-.67-.18.88-3.61h10.81Z"/>
        <path class="cls-2" d="M74.56,151.86c.67,1.23,1.28,2.35,2.83,2.45v.6h-4.46c-.31-.47-.52-1.01-.78-1.52l-1.06-2.26c-1.08-2.33-1.79-2.53-2.54-2.53v4.04c0,1.26.45,1.66,1.75,1.66v.6h-6.46v-.6c1.3,0,1.75-.4,1.75-1.66v-8.7c0-1.26-.45-1.66-1.75-1.66v-.6h7.76c2.67,0,4.31,1.44,4.31,3.36s-1.75,2.92-3.48,3.25c.56.38.85,1.01,1.15,1.61l.97,1.95ZM68.89,147.76c2.98,0,3.88-.97,3.88-2.89s-1.05-2.47-2.98-2.47c-1.19,0-1.25.45-1.25,1.48v3.88h.34Z"/>
        <path class="cls-2" d="M85.04,150.31c-.05,3.27.99,4.22,2.94,4.22,2.62,0,3.43-1.61,3.43-4.24v-6.33c0-1.26-.45-1.66-1.75-1.66v-.6h4.44v.6c-1.3,0-1.75.4-1.75,1.66v6.48c0,3.14-1.37,4.8-4.89,4.8s-5.38-1.62-5.38-4.42v-6.86c0-1.26-.45-1.66-1.75-1.66v-.6h6.46v.6c-1.3,0-1.75.4-1.75,1.66v6.35Z"/>
        <path class="cls-2" d="M107.35,145.15l-.69.23c-.88-1.44-2.69-3.3-4.51-3.3-1.24,0-2.26.67-2.26,1.97,0,1.48,1.55,1.88,2.71,2.24l1.06.34c2.22.72,4.38,1.75,4.38,4.42,0,2.47-2.06,4.19-4.42,4.19-.78,0-1.53-.16-2.27-.4-.34-.11-.56-.2-.92-.2-.31,0-.47.04-1.61.58l-1.17-4.17.7-.23c1.06,1.71,2.82,3.72,5,3.72,1.3,0,2.63-.92,2.63-2.31,0-1.48-1.44-1.93-2.6-2.29-2.4-.78-5.41-1.68-5.41-4.75,0-2.29,1.82-3.81,4.04-3.81.74,0,1.3.13,1.98.36.25.09.49.18.76.18.45,0,1.06-.36,1.39-.67l1.19,3.9Z"/>
        <path class="cls-2" d="M123.64,141.7l.97,3.61-.67.18c-.87-1.35-2.47-3.05-4.2-3.09v10.25c0,1.26.45,1.66,1.75,1.66v.6h-6.46v-.6c1.3,0,1.75-.4,1.75-1.66v-10.25c-1.8.22-3.21,1.62-4.17,3.09l-.67-.18.88-3.61h10.81Z"/>
      </g>
    </g>
  </g>
</svg>